<?xml version="1.0" encoding="UTF-8"?>
<svg width="150px" height="200px" viewBox="0 0 150 200" version="1.1" xmlns="http://www.w3.org/2000/svg" xmlns:xlink="http://www.w3.org/1999/xlink">
    <!-- Generator: Sketch 43.2 (39069) - http://www.bohemiancoding.com/sketch -->
    <title>pattern</title>
    <desc>Created with Sketch.</desc>
    <defs>
        <path d="M-7.10542736e-15,7.10542736e-15 L70,7.10542736e-15 L70,70 L-7.10542736e-15,70 L-7.10542736e-15,7.10542736e-15 Z M35,35 L70,70 L70,7.10542736e-15 L35,35 Z" id="path-1"></path>
        <path d="M-7.10542736e-15,7.10542736e-15 L70,7.10542736e-15 L70,70 L-7.10542736e-15,70 L-7.10542736e-15,7.10542736e-15 Z M35,35 L70,70 L70,7.10542736e-15 L35,35 Z" id="path-3"></path>
        <path d="M-7.10542736e-15,7.10542736e-15 L70,7.10542736e-15 L70,70 L-7.10542736e-15,70 L-7.10542736e-15,7.10542736e-15 Z M35,35 L70,70 L70,7.10542736e-15 L35,35 Z" id="path-5"></path>
    </defs>
    <g id="Page-1" stroke="none" stroke-width="1" fill="none" fill-rule="evenodd" opacity="0.1">
        <g id="pattern">
            <g id="icon" transform="translate(40.000000, 15.000000)">
                <g id="Group">
                    <circle id="Oval-5" stroke-opacity="0.25" stroke="#000000" stroke-width="18.4570312" cx="35" cy="35" r="21.3964844"></circle>
                    <mask id="mask-2" fill="white">
                        <use xlink:href="#path-1"></use>
                    </mask>
                    <g id="Rectangle-3"></g>
                    <circle id="Oval-4" stroke="#FFFFFF" stroke-width="3.28125" mask="url(#mask-2)" cx="35" cy="35" r="28.984375"></circle>
                </g>
            </g>
            <g id="icon" transform="translate(115.000000, 115.000000)">
                <g id="Group">
                    <circle id="Oval-5" stroke-opacity="0.25" stroke="#000000" stroke-width="18.4570312" cx="35" cy="35" r="21.3964844"></circle>
                    <mask id="mask-4" fill="white">
                        <use xlink:href="#path-3"></use>
                    </mask>
                    <g id="Rectangle-3"></g>
                    <circle id="Oval-4" stroke="#FFFFFF" stroke-width="3.28125" mask="url(#mask-4)" cx="35" cy="35" r="28.984375"></circle>
                </g>
            </g>
            <g id="icon" transform="translate(-35.000000, 115.000000)">
                <g id="Group">
                    <circle id="Oval-5" stroke-opacity="0.25" stroke="#000000" stroke-width="18.4570312" cx="35" cy="35" r="21.3964844"></circle>
                    <mask id="mask-6" fill="white">
                        <use xlink:href="#path-5"></use>
                    </mask>
                    <g id="Rectangle-3"></g>
                    <circle id="Oval-4" stroke="#FFFFFF" stroke-width="3.28125" mask="url(#mask-6)" cx="35" cy="35" r="28.984375"></circle>
                </g>
            </g>
        </g>
    </g>
</svg>