<?xml version="1.0" encoding="UTF-8"?>
<svg width="278px" height="58px" viewBox="0 0 278 58" version="1.1" xmlns="http://www.w3.org/2000/svg" xmlns:xlink="http://www.w3.org/1999/xlink">
    <!-- Generator: Sketch 43.2 (39069) - http://www.bohemiancoding.com/sketch -->
    <title>mastercontrol</title>
    <desc>Created with Sketch.</desc>
    <defs>
      <filter id="dropshadow" height="130%">
        <feGaussianBlur in="SourceAlpha" stdDeviation="2"/>
        <feOffset dx="1" dy="1" result="offsetblur"/>
        <feComponentTransfer>
          <feFuncA type="linear" slope="0.3"/>
        </feComponentTransfer>
        <feMerge>
          <feMergeNode/>
          <feMergeNode in="SourceGraphic"/>
        </feMerge>
      </filter>
    </defs>
    <g id="Page-1" stroke="none" stroke-width="1" fill="none" fill-rule="evenodd" style="filter:url(#dropshadow)">
        <g id="mastercontrol" fill="#FFFFFF">
            <path d="M34.59375,46 L34.59375,12.1796875 L32.484375,12.1796875 L18.8671875,43.5859375 L18.7265625,43.5859375 L5.0625,12.1796875 L3,12.1796875 L3,46 L4.78125,46 L4.78125,16.0234375 L4.875,16.0234375 L17.90625,45.9296875 L19.6875,45.9296875 L32.71875,16.0234375 L32.8125,16.0234375 L32.8125,46 L34.59375,46 Z M47.34375,44.7578125 C52.171875,44.7578125 56.0390625,41.265625 56.0390625,36.953125 L56.0390625,33.34375 L47.953125,33.953125 C43.3125,34.28125 40.828125,36.1796875 40.828125,39.4140625 C40.828125,42.5078125 43.546875,44.7578125 47.34375,44.7578125 Z M47.0859375,46.3515625 C42.3046875,46.3515625 39,43.515625 39,39.4140625 C39,35.265625 42,32.8984375 47.71875,32.453125 L56.0390625,31.84375 L56.0390625,29.6875 C56.0390625,25.4453125 53.484375,22.9375 49.125,22.9375 C45,22.9375 42.2578125,25.046875 41.671875,28.703125 L39.9375,28.703125 C40.359375,24.203125 43.9921875,21.296875 49.125,21.296875 C54.4921875,21.296875 57.8671875,24.484375 57.8671875,29.546875 L57.8671875,46 L56.109375,46 L56.109375,40.7734375 L56.0625,40.7734375 C54.84375,44.0546875 51.2109375,46.3515625 47.0859375,46.3515625 Z M62.5078125,27.8828125 C62.5078125,31.0234375 64.59375,32.8515625 68.71875,33.8359375 L72.65625,34.796875 C76.59375,35.734375 78.1640625,37.140625 78.1640625,39.671875 C78.1640625,42.71875 75.0234375,44.7578125 70.96875,44.7578125 C66.84375,44.7578125 63.890625,42.3203125 63.5390625,39.109375 L61.734375,39.109375 C62.015625,43.140625 65.6953125,46.328125 70.9453125,46.328125 C76.1953125,46.328125 79.9921875,43.5625 79.9921875,39.53125 C79.9921875,36.1796875 78.0234375,34.375 73.1953125,33.1796875 L69.3984375,32.2890625 C65.9296875,31.4453125 64.3125,30.203125 64.3125,27.7890625 C64.3125,24.8828125 67.2890625,22.8671875 70.875,22.8671875 C74.953125,22.8671875 77.4609375,25.2578125 77.8125,28.6328125 L79.59375,28.6328125 C79.21875,24.1796875 75.84375,21.3203125 70.921875,21.3203125 C66.234375,21.3203125 62.5078125,23.9921875 62.5078125,27.8828125 Z M85.3828125,15.2265625 L85.3828125,21.625 L81.75,21.625 L81.75,23.1953125 L85.3828125,23.1953125 L85.3828125,40.4453125 C85.3828125,44.4765625 86.90625,46.046875 90.46875,46.046875 C90.75,46.046875 92.25,46.0234375 92.4140625,46 L92.4140625,44.3828125 C92.3203125,44.40625 90.84375,44.4296875 90.7265625,44.4296875 C88.265625,44.4296875 87.1875,43.28125 87.1875,40.375 L87.1875,23.1953125 L92.0859375,23.1953125 L92.0859375,21.625 L87.1875,21.625 L87.1875,15.2265625 L85.3828125,15.2265625 Z M104.976562,22.9140625 C99.9375,22.9140625 96.4453125,26.78125 96.1875,32.59375 L113.578125,32.59375 C113.554688,26.828125 110.109375,22.9140625 104.976562,22.9140625 Z M113.320312,39.1796875 L115.148438,39.1796875 C114.351562,43.3046875 110.601562,46.328125 105.1875,46.328125 C98.578125,46.328125 94.3125,41.6875 94.3125,33.8359375 C94.3125,26.265625 98.5546875,21.296875 105,21.296875 C111.304688,21.296875 115.453125,26.0078125 115.453125,33.0859375 L115.453125,34.1171875 L96.1640625,34.1171875 L96.1640625,34.2109375 C96.1640625,40.8203125 99.7734375,44.7109375 105.210938,44.7109375 C109.664062,44.7109375 112.59375,42.34375 113.320312,39.1796875 Z M119.601562,46 L121.429688,46 L121.429688,30.859375 C121.429688,26.2890625 123.796875,23.03125 127.640625,23.03125 C128.789062,23.03125 129.65625,23.265625 130.171875,23.5234375 L130.171875,21.6953125 C129.703125,21.5078125 128.859375,21.296875 127.898438,21.296875 C124.664062,21.296875 122.34375,23.125 121.359375,26.4296875 L121.3125,26.4296875 L121.3125,21.625 L119.601562,21.625 L119.601562,46 Z M156.328125,46.4921875 C163.476562,46.4921875 168.84375,42.203125 169.617188,35.78125 L167.765625,35.78125 C167.039062,41.21875 162.28125,44.7578125 156.328125,44.7578125 C148.453125,44.7578125 143.34375,38.6171875 143.34375,28.890625 C143.34375,19.3984375 148.382812,13.421875 156.328125,13.421875 C162.140625,13.421875 167.039062,17.5703125 167.765625,23.0078125 L169.617188,23.0078125 C168.914062,16.5625 163.195312,11.6875 156.328125,11.6875 C147.234375,11.6875 141.445312,18.3671875 141.445312,28.890625 C141.445312,39.6484375 147.257812,46.4921875 156.328125,46.4921875 Z M183.28125,46.328125 C176.765625,46.328125 172.429688,41.4765625 172.429688,33.8125 C172.429688,26.125 176.789062,21.296875 183.28125,21.296875 C189.796875,21.296875 194.15625,26.125 194.15625,33.8125 C194.15625,41.4765625 189.796875,46.328125 183.28125,46.328125 Z M183.28125,44.6875 C188.742188,44.6875 192.328125,40.515625 192.328125,33.8125 C192.328125,27.0859375 188.742188,22.9375 183.28125,22.9375 C177.820312,22.9375 174.257812,27.109375 174.257812,33.8125 C174.257812,40.5390625 177.820312,44.6875 183.28125,44.6875 Z M198.304688,46 L200.132812,46 L200.132812,31.4921875 C200.132812,26.453125 203.320312,22.9375 208.078125,22.9375 C212.601562,22.9375 215.578125,25.7734375 215.578125,30.484375 L215.578125,46 L217.40625,46 L217.40625,30.2734375 C217.40625,24.765625 213.867188,21.296875 208.5,21.296875 C204.351562,21.296875 201.210938,23.546875 200.0625,26.96875 L200.015625,26.96875 L200.015625,21.625 L198.304688,21.625 L198.304688,46 Z M224.015625,15.2265625 L224.015625,21.625 L220.382812,21.625 L220.382812,23.1953125 L224.015625,23.1953125 L224.015625,40.4453125 C224.015625,44.4765625 225.539062,46.046875 229.101562,46.046875 C229.382812,46.046875 230.882812,46.0234375 231.046875,46 L231.046875,44.3828125 C230.953125,44.40625 229.476562,44.4296875 229.359375,44.4296875 C226.898438,44.4296875 225.820312,43.28125 225.820312,40.375 L225.820312,23.1953125 L230.71875,23.1953125 L230.71875,21.625 L225.820312,21.625 L225.820312,15.2265625 L224.015625,15.2265625 Z M235.195312,46 L237.023438,46 L237.023438,30.859375 C237.023438,26.2890625 239.390625,23.03125 243.234375,23.03125 C244.382812,23.03125 245.25,23.265625 245.765625,23.5234375 L245.765625,21.6953125 C245.296875,21.5078125 244.453125,21.296875 243.492188,21.296875 C240.257812,21.296875 237.9375,23.125 236.953125,26.4296875 L236.90625,26.4296875 L236.90625,21.625 L235.195312,21.625 L235.195312,46 Z M257.0625,46.328125 C250.546875,46.328125 246.210938,41.4765625 246.210938,33.8125 C246.210938,26.125 250.570313,21.296875 257.0625,21.296875 C263.578125,21.296875 267.9375,26.125 267.9375,33.8125 C267.9375,41.4765625 263.578125,46.328125 257.0625,46.328125 Z M257.0625,44.6875 C262.523438,44.6875 266.109375,40.515625 266.109375,33.8125 C266.109375,27.0859375 262.523438,22.9375 257.0625,22.9375 C251.601563,22.9375 248.039063,27.109375 248.039063,33.8125 C248.039063,40.5390625 251.601563,44.6875 257.0625,44.6875 Z M272.320312,46 L274.125,46 L274.125,12.1796875 L272.320312,12.1796875 L272.320312,46 Z" id="Master-Control"></path>
        </g>
    </g>
</svg>
