<?xml version="1.0" encoding="UTF-8"?>
<svg width="225px" height="58px" viewBox="0 0 225 58" version="1.1" xmlns="http://www.w3.org/2000/svg" xmlns:xlink="http://www.w3.org/1999/xlink">
    <!-- Generator: Sketch 43.2 (39069) - http://www.bohemiancoding.com/sketch -->
    <title>pod2watch</title>
    <desc>Created with Sketch.</desc>
    <defs>
      <filter id="dropshadow" height="130%">
        <feGaussianBlur in="SourceAlpha" stdDeviation="2"/>
        <feOffset dx="1" dy="1" result="offsetblur"/>
        <feComponentTransfer>
          <feFuncA type="linear" slope="0.3"/>
        </feComponentTransfer>
        <feMerge>
          <feMergeNode/>
          <feMergeNode in="SourceGraphic"/>
        </feMerge>
      </filter>
    </defs>
    <g id="Page-1" stroke="none" stroke-width="1" fill="none" fill-rule="evenodd" style="filter:url(#dropshadow)">
        <g id="pod2watch" fill="#FFFFFF">
            <path d="M3,12.1796875 L13.8046875,12.1796875 C20.3671875,12.1796875 24.65625,16.1640625 24.65625,22.28125 C24.65625,28.3984375 20.3671875,32.359375 13.78125,32.359375 L4.8515625,32.359375 L4.8515625,46 L3,46 L3,12.1796875 Z M4.8515625,13.8671875 L4.8515625,30.671875 L13.5,30.671875 C19.1953125,30.671875 22.78125,27.484375 22.78125,22.28125 C22.78125,17.0546875 19.21875,13.8671875 13.5,13.8671875 L4.8515625,13.8671875 Z M37.9453125,46.328125 C31.4296875,46.328125 27.09375,41.4765625 27.09375,33.8125 C27.09375,26.125 31.453125,21.296875 37.9453125,21.296875 C44.4609375,21.296875 48.8203125,26.125 48.8203125,33.8125 C48.8203125,41.4765625 44.4609375,46.328125 37.9453125,46.328125 Z M37.9453125,44.6875 C43.40625,44.6875 46.9921875,40.515625 46.9921875,33.8125 C46.9921875,27.0859375 43.40625,22.9375 37.9453125,22.9375 C32.484375,22.9375 28.921875,27.109375 28.921875,33.8125 C28.921875,40.5390625 32.484375,44.6875 37.9453125,44.6875 Z M62.1328125,46.328125 C56.0625,46.328125 51.75,41.2421875 51.75,33.8125 C51.75,26.359375 56.0390625,21.296875 62.109375,21.296875 C66.6328125,21.296875 70.1484375,24.2265625 71.2265625,28.0234375 L71.2734375,28.0234375 L71.2734375,12.1796875 L73.1015625,12.1796875 L73.1015625,46 L71.390625,46 L71.390625,39.4609375 L71.3203125,39.4609375 C70.1953125,43.3984375 66.65625,46.328125 62.1328125,46.328125 Z M62.3671875,22.9375 C57.2109375,22.9375 53.578125,27.3203125 53.578125,33.7890625 C53.578125,40.28125 57.2109375,44.6875 62.3671875,44.6875 C67.59375,44.6875 71.296875,40.234375 71.296875,33.8125 C71.296875,27.390625 67.59375,22.9375 62.3671875,22.9375 Z M78.9375,21.296875 L80.7421875,21.296875 C80.859375,16.703125 84.46875,13.3515625 89.2734375,13.3515625 C94.0078125,13.3515625 97.6640625,16.65625 97.6640625,20.9453125 C97.6640625,24.0859375 96.28125,26.3828125 91.078125,31.84375 L79.0546875,44.59375 L79.0546875,46 L100.78125,46 L100.78125,44.3125 L81.7265625,44.3125 L81.7265625,44.21875 L92.296875,33.0390625 C97.875,27.203125 99.515625,24.4609375 99.515625,20.875 C99.515625,15.6953125 95.0625,11.6875 89.3203125,11.6875 C83.4140625,11.6875 79.0546875,15.71875 78.9375,21.296875 Z M123.867188,15.6484375 L114.867188,46 L113.226562,46 L103.78125,12.1796875 L105.703125,12.1796875 L114.046875,42.7890625 L114.164062,42.7890625 L123.046875,12.1796875 L124.78125,12.1796875 L133.6875,42.7890625 L133.804688,42.7890625 L142.125,12.1796875 L144.070312,12.1796875 L134.625,46 L132.984375,46 L123.984375,15.6484375 L123.867188,15.6484375 Z M152.390625,44.7578125 C157.21875,44.7578125 161.085938,41.265625 161.085938,36.953125 L161.085938,33.34375 L153,33.953125 C148.359375,34.28125 145.875,36.1796875 145.875,39.4140625 C145.875,42.5078125 148.59375,44.7578125 152.390625,44.7578125 Z M152.132812,46.3515625 C147.351562,46.3515625 144.046875,43.515625 144.046875,39.4140625 C144.046875,35.265625 147.046875,32.8984375 152.765625,32.453125 L161.085938,31.84375 L161.085938,29.6875 C161.085938,25.4453125 158.53125,22.9375 154.171875,22.9375 C150.046875,22.9375 147.304688,25.046875 146.71875,28.703125 L144.984375,28.703125 C145.40625,24.203125 149.039062,21.296875 154.171875,21.296875 C159.539062,21.296875 162.914062,24.484375 162.914062,29.546875 L162.914062,46 L161.15625,46 L161.15625,40.7734375 L161.109375,40.7734375 C159.890625,44.0546875 156.257812,46.3515625 152.132812,46.3515625 Z M169.5,15.2265625 L169.5,21.625 L165.867188,21.625 L165.867188,23.1953125 L169.5,23.1953125 L169.5,40.4453125 C169.5,44.4765625 171.023438,46.046875 174.585938,46.046875 C174.867188,46.046875 176.367188,46.0234375 176.53125,46 L176.53125,44.3828125 C176.4375,44.40625 174.960938,44.4296875 174.84375,44.4296875 C172.382812,44.4296875 171.304688,43.28125 171.304688,40.375 L171.304688,23.1953125 L176.203125,23.1953125 L176.203125,21.625 L171.304688,21.625 L171.304688,15.2265625 L169.5,15.2265625 Z M198.9375,28.984375 C198.210938,24.6484375 194.414062,21.296875 189.164062,21.296875 C182.648438,21.296875 178.429688,26.171875 178.429688,33.8125 C178.429688,41.5 182.625,46.328125 189.1875,46.328125 C194.367188,46.328125 198.1875,43.2578125 198.914062,38.8515625 L197.109375,38.8515625 C196.382812,42.34375 193.335938,44.6875 189.1875,44.6875 C183.726562,44.6875 180.257812,40.46875 180.257812,33.8125 C180.257812,27.1796875 183.726562,22.9375 189.164062,22.9375 C193.382812,22.9375 196.429688,25.4921875 197.132812,28.984375 L198.9375,28.984375 Z M203.179687,46 L204.984375,46 L204.984375,31.5390625 C204.984375,26.453125 208.289062,22.9375 213.070312,22.9375 C217.59375,22.9375 220.570312,25.8203125 220.570312,30.5078125 L220.570312,46 L222.375,46 L222.375,30.296875 C222.375,24.8359375 218.8125,21.296875 213.46875,21.296875 C209.367187,21.296875 206.179687,23.546875 205.054687,26.96875 L204.984375,26.96875 L204.984375,12.1796875 L203.179687,12.1796875 L203.179687,46 Z" id="Pod2Watch"></path>
        </g>
    </g>
</svg>
