<?xml version="1.0" encoding="UTF-8"?>
<svg width="265px" height="58px" viewBox="0 0 265 58" version="1.1" xmlns="http://www.w3.org/2000/svg" xmlns:xlink="http://www.w3.org/1999/xlink">
    <!-- Generator: Sketch 43.2 (39069) - http://www.bohemiancoding.com/sketch -->
    <title>mastercaster</title>
    <desc>Created with Sketch.</desc>
    <defs></defs>
    <g id="Page-1" stroke="none" stroke-width="1" fill="none" fill-rule="evenodd">
        <g id="mastercaster" fill="#000000">
            <path d="M34.59375,46 L34.59375,12.1796875 L32.484375,12.1796875 L18.8671875,43.5859375 L18.7265625,43.5859375 L5.0625,12.1796875 L3,12.1796875 L3,46 L4.78125,46 L4.78125,16.0234375 L4.875,16.0234375 L17.90625,45.9296875 L19.6875,45.9296875 L32.71875,16.0234375 L32.8125,16.0234375 L32.8125,46 L34.59375,46 Z M47.34375,44.7578125 C52.171875,44.7578125 56.0390625,41.265625 56.0390625,36.953125 L56.0390625,33.34375 L47.953125,33.953125 C43.3125,34.28125 40.828125,36.1796875 40.828125,39.4140625 C40.828125,42.5078125 43.546875,44.7578125 47.34375,44.7578125 Z M47.0859375,46.3515625 C42.3046875,46.3515625 39,43.515625 39,39.4140625 C39,35.265625 42,32.8984375 47.71875,32.453125 L56.0390625,31.84375 L56.0390625,29.6875 C56.0390625,25.4453125 53.484375,22.9375 49.125,22.9375 C45,22.9375 42.2578125,25.046875 41.671875,28.703125 L39.9375,28.703125 C40.359375,24.203125 43.9921875,21.296875 49.125,21.296875 C54.4921875,21.296875 57.8671875,24.484375 57.8671875,29.546875 L57.8671875,46 L56.109375,46 L56.109375,40.7734375 L56.0625,40.7734375 C54.84375,44.0546875 51.2109375,46.3515625 47.0859375,46.3515625 Z M62.5078125,27.8828125 C62.5078125,31.0234375 64.59375,32.8515625 68.71875,33.8359375 L72.65625,34.796875 C76.59375,35.734375 78.1640625,37.140625 78.1640625,39.671875 C78.1640625,42.71875 75.0234375,44.7578125 70.96875,44.7578125 C66.84375,44.7578125 63.890625,42.3203125 63.5390625,39.109375 L61.734375,39.109375 C62.015625,43.140625 65.6953125,46.328125 70.9453125,46.328125 C76.1953125,46.328125 79.9921875,43.5625 79.9921875,39.53125 C79.9921875,36.1796875 78.0234375,34.375 73.1953125,33.1796875 L69.3984375,32.2890625 C65.9296875,31.4453125 64.3125,30.203125 64.3125,27.7890625 C64.3125,24.8828125 67.2890625,22.8671875 70.875,22.8671875 C74.953125,22.8671875 77.4609375,25.2578125 77.8125,28.6328125 L79.59375,28.6328125 C79.21875,24.1796875 75.84375,21.3203125 70.921875,21.3203125 C66.234375,21.3203125 62.5078125,23.9921875 62.5078125,27.8828125 Z M85.3828125,15.2265625 L85.3828125,21.625 L81.75,21.625 L81.75,23.1953125 L85.3828125,23.1953125 L85.3828125,40.4453125 C85.3828125,44.4765625 86.90625,46.046875 90.46875,46.046875 C90.75,46.046875 92.25,46.0234375 92.4140625,46 L92.4140625,44.3828125 C92.3203125,44.40625 90.84375,44.4296875 90.7265625,44.4296875 C88.265625,44.4296875 87.1875,43.28125 87.1875,40.375 L87.1875,23.1953125 L92.0859375,23.1953125 L92.0859375,21.625 L87.1875,21.625 L87.1875,15.2265625 L85.3828125,15.2265625 Z M104.976562,22.9140625 C99.9375,22.9140625 96.4453125,26.78125 96.1875,32.59375 L113.578125,32.59375 C113.554688,26.828125 110.109375,22.9140625 104.976562,22.9140625 Z M113.320312,39.1796875 L115.148438,39.1796875 C114.351562,43.3046875 110.601562,46.328125 105.1875,46.328125 C98.578125,46.328125 94.3125,41.6875 94.3125,33.8359375 C94.3125,26.265625 98.5546875,21.296875 105,21.296875 C111.304688,21.296875 115.453125,26.0078125 115.453125,33.0859375 L115.453125,34.1171875 L96.1640625,34.1171875 L96.1640625,34.2109375 C96.1640625,40.8203125 99.7734375,44.7109375 105.210938,44.7109375 C109.664062,44.7109375 112.59375,42.34375 113.320312,39.1796875 Z M119.601562,46 L121.429688,46 L121.429688,30.859375 C121.429688,26.2890625 123.796875,23.03125 127.640625,23.03125 C128.789062,23.03125 129.65625,23.265625 130.171875,23.5234375 L130.171875,21.6953125 C129.703125,21.5078125 128.859375,21.296875 127.898438,21.296875 C124.664062,21.296875 122.34375,23.125 121.359375,26.4296875 L121.3125,26.4296875 L121.3125,21.625 L119.601562,21.625 L119.601562,46 Z M156.328125,46.4921875 C163.476562,46.4921875 168.84375,42.203125 169.617188,35.78125 L167.765625,35.78125 C167.039062,41.21875 162.28125,44.7578125 156.328125,44.7578125 C148.453125,44.7578125 143.34375,38.6171875 143.34375,28.890625 C143.34375,19.3984375 148.382812,13.421875 156.328125,13.421875 C162.140625,13.421875 167.039062,17.5703125 167.765625,23.0078125 L169.617188,23.0078125 C168.914062,16.5625 163.195312,11.6875 156.328125,11.6875 C147.234375,11.6875 141.445312,18.3671875 141.445312,28.890625 C141.445312,39.6484375 147.257812,46.4921875 156.328125,46.4921875 Z M181.242188,44.7578125 C186.070312,44.7578125 189.9375,41.265625 189.9375,36.953125 L189.9375,33.34375 L181.851562,33.953125 C177.210938,34.28125 174.726562,36.1796875 174.726562,39.4140625 C174.726562,42.5078125 177.445312,44.7578125 181.242188,44.7578125 Z M180.984375,46.3515625 C176.203125,46.3515625 172.898438,43.515625 172.898438,39.4140625 C172.898438,35.265625 175.898438,32.8984375 181.617188,32.453125 L189.9375,31.84375 L189.9375,29.6875 C189.9375,25.4453125 187.382812,22.9375 183.023438,22.9375 C178.898438,22.9375 176.15625,25.046875 175.570312,28.703125 L173.835938,28.703125 C174.257812,24.203125 177.890625,21.296875 183.023438,21.296875 C188.390625,21.296875 191.765625,24.484375 191.765625,29.546875 L191.765625,46 L190.007812,46 L190.007812,40.7734375 L189.960938,40.7734375 C188.742188,44.0546875 185.109375,46.3515625 180.984375,46.3515625 Z M196.40625,27.8828125 C196.40625,31.0234375 198.492188,32.8515625 202.617188,33.8359375 L206.554688,34.796875 C210.492188,35.734375 212.0625,37.140625 212.0625,39.671875 C212.0625,42.71875 208.921875,44.7578125 204.867188,44.7578125 C200.742188,44.7578125 197.789062,42.3203125 197.4375,39.109375 L195.632812,39.109375 C195.914062,43.140625 199.59375,46.328125 204.84375,46.328125 C210.09375,46.328125 213.890625,43.5625 213.890625,39.53125 C213.890625,36.1796875 211.921875,34.375 207.09375,33.1796875 L203.296875,32.2890625 C199.828125,31.4453125 198.210938,30.203125 198.210938,27.7890625 C198.210938,24.8828125 201.1875,22.8671875 204.773438,22.8671875 C208.851562,22.8671875 211.359375,25.2578125 211.710938,28.6328125 L213.492188,28.6328125 C213.117188,24.1796875 209.742188,21.3203125 204.820312,21.3203125 C200.132812,21.3203125 196.40625,23.9921875 196.40625,27.8828125 Z M219.28125,15.2265625 L219.28125,21.625 L215.648438,21.625 L215.648438,23.1953125 L219.28125,23.1953125 L219.28125,40.4453125 C219.28125,44.4765625 220.804688,46.046875 224.367188,46.046875 C224.648438,46.046875 226.148438,46.0234375 226.3125,46 L226.3125,44.3828125 C226.21875,44.40625 224.742188,44.4296875 224.625,44.4296875 C222.164062,44.4296875 221.085938,43.28125 221.085938,40.375 L221.085938,23.1953125 L225.984375,23.1953125 L225.984375,21.625 L221.085938,21.625 L221.085938,15.2265625 L219.28125,15.2265625 Z M238.875,22.9140625 C233.835938,22.9140625 230.34375,26.78125 230.085938,32.59375 L247.476562,32.59375 C247.453125,26.828125 244.007812,22.9140625 238.875,22.9140625 Z M247.21875,39.1796875 L249.046875,39.1796875 C248.25,43.3046875 244.5,46.328125 239.085938,46.328125 C232.476562,46.328125 228.210938,41.6875 228.210938,33.8359375 C228.210938,26.265625 232.453125,21.296875 238.898438,21.296875 C245.203125,21.296875 249.351562,26.0078125 249.351562,33.0859375 L249.351562,34.1171875 L230.0625,34.1171875 L230.0625,34.2109375 C230.0625,40.8203125 233.671875,44.7109375 239.109375,44.7109375 C243.5625,44.7109375 246.492188,42.34375 247.21875,39.1796875 Z M253.5,46 L255.328125,46 L255.328125,30.859375 C255.328125,26.2890625 257.695312,23.03125 261.539062,23.03125 C262.6875,23.03125 263.554688,23.265625 264.070312,23.5234375 L264.070312,21.6953125 C263.601562,21.5078125 262.757812,21.296875 261.796875,21.296875 C258.5625,21.296875 256.242188,23.125 255.257812,26.4296875 L255.210938,26.4296875 L255.210938,21.625 L253.5,21.625 L253.5,46 Z" id="Master-Caster"></path>
        </g>
    </g>
</svg>
