<?xml version="1.0" encoding="UTF-8"?>
<svg width="150px" height="200px" viewBox="0 0 150 200" version="1.1" xmlns="http://www.w3.org/2000/svg" xmlns:xlink="http://www.w3.org/1999/xlink">
    <!-- Generator: Sketch 43.2 (39069) - http://www.bohemiancoding.com/sketch -->
    <title>pattern</title>
    <desc>Created with Sketch.</desc>
    <defs>
        <rect id="path-1" x="0" y="0" width="54" height="44"></rect>
        <rect id="path-3" x="0" y="0" width="54" height="44"></rect>
        <rect id="path-5" x="0" y="0" width="54" height="44"></rect>
    </defs>
    <g id="Page-1" stroke="none" stroke-width="1" fill="none" fill-rule="evenodd" opacity="0.04">
        <g id="pattern">
            <g id="icon" transform="translate(48.000000, 28.000000)">
                <g id="Group">
                    <mask id="mask-2" fill="white">
                        <use xlink:href="#path-1"></use>
                    </mask>
                    <g id="Rectangle-4"></g>
                    <ellipse id="Oval" stroke="#000000" stroke-width="4.79727057" mask="url(#mask-2)" cx="0.667844523" cy="43.3333333" rx="23.8381138" ry="23.7918409"></ellipse>
                    <ellipse id="Oval" stroke="#000000" stroke-width="4.79727057" mask="url(#mask-2)" cx="0.763250883" cy="43.4285714" rx="14.2020714" ry="14.1727933"></ellipse>
                    <ellipse id="Oval" fill="#000000" mask="url(#mask-2)" cx="0.858657244" cy="43.5238095" rx="7.15547703" ry="7.14285714"></ellipse>
                    <path d="M18.4243384,44 L49.2078602,44 C51.8498128,44 54,41.8543109 54,39.2074692 L54,4.79253083 C54,2.15199695 51.8544859,0 49.2078602,0 L4.79213977,0 C2.15018719,0 0,2.14406344 0,4.78889972 L0,32.4553571 L0,35.8298419 L0,12 L5.15194346,12 L5.15194346,4.76190476 L49.0388693,4.76190476 L49.0388693,38.8571429 L32.0565371,38.8571429 L32.0565371,44 L18.4243384,44 Z" id="Combined-Shape" fill="#000000" mask="url(#mask-2)"></path>
                </g>
            </g>
            <g id="icon" transform="translate(123.000000, 128.000000)">
                <g id="Group">
                    <mask id="mask-4" fill="white">
                        <use xlink:href="#path-3"></use>
                    </mask>
                    <g id="Rectangle-4"></g>
                    <ellipse id="Oval" stroke="#000000" stroke-width="4.79727057" mask="url(#mask-4)" cx="0.667844523" cy="43.3333333" rx="23.8381138" ry="23.7918409"></ellipse>
                    <ellipse id="Oval" stroke="#000000" stroke-width="4.79727057" mask="url(#mask-4)" cx="0.763250883" cy="43.4285714" rx="14.2020714" ry="14.1727933"></ellipse>
                    <ellipse id="Oval" fill="#000000" mask="url(#mask-4)" cx="0.858657244" cy="43.5238095" rx="7.15547703" ry="7.14285714"></ellipse>
                    <path d="M18.4243384,44 L49.2078602,44 C51.8498128,44 54,41.8543109 54,39.2074692 L54,4.79253083 C54,2.15199695 51.8544859,0 49.2078602,0 L4.79213977,0 C2.15018719,0 0,2.14406344 0,4.78889972 L0,32.4553571 L0,35.8298419 L0,12 L5.15194346,12 L5.15194346,4.76190476 L49.0388693,4.76190476 L49.0388693,38.8571429 L32.0565371,38.8571429 L32.0565371,44 L18.4243384,44 Z" id="Combined-Shape" fill="#000000" mask="url(#mask-4)"></path>
                </g>
            </g>
            <g id="icon" transform="translate(-27.000000, 128.000000)">
                <g id="Group">
                    <mask id="mask-6" fill="white">
                        <use xlink:href="#path-5"></use>
                    </mask>
                    <g id="Rectangle-4"></g>
                    <ellipse id="Oval" stroke="#000000" stroke-width="4.79727057" mask="url(#mask-6)" cx="0.667844523" cy="43.3333333" rx="23.8381138" ry="23.7918409"></ellipse>
                    <ellipse id="Oval" stroke="#000000" stroke-width="4.79727057" mask="url(#mask-6)" cx="0.763250883" cy="43.4285714" rx="14.2020714" ry="14.1727933"></ellipse>
                    <ellipse id="Oval" fill="#000000" mask="url(#mask-6)" cx="0.858657244" cy="43.5238095" rx="7.15547703" ry="7.14285714"></ellipse>
                    <path d="M18.4243384,44 L49.2078602,44 C51.8498128,44 54,41.8543109 54,39.2074692 L54,4.79253083 C54,2.15199695 51.8544859,0 49.2078602,0 L4.79213977,0 C2.15018719,0 0,2.14406344 0,4.78889972 L0,32.4553571 L0,35.8298419 L0,12 L5.15194346,12 L5.15194346,4.76190476 L49.0388693,4.76190476 L49.0388693,38.8571429 L32.0565371,38.8571429 L32.0565371,44 L18.4243384,44 Z" id="Combined-Shape" fill="#000000" mask="url(#mask-6)"></path>
                </g>
            </g>
        </g>
    </g>
</svg>