<?xml version="1.0" encoding="UTF-8"?>
<svg width="231px" height="58px" viewBox="0 0 231 58" version="1.1" xmlns="http://www.w3.org/2000/svg" xmlns:xlink="http://www.w3.org/1999/xlink">
    <!-- Generator: Sketch 43.2 (39069) - http://www.bohemiancoding.com/sketch -->
    <title>quicktwitch</title>
    <desc>Created with Sketch.</desc>
    <defs></defs>
    <g id="Page-1" stroke="none" stroke-width="1" fill="none" fill-rule="evenodd">
        <g id="quicktwitch" fill="#FFFFFF">
            <path d="M16.640625,46.4921875 C7.40625,46.4921875 1.5703125,39.765625 1.5703125,29.078125 C1.5703125,18.4375 7.4296875,11.6875 16.640625,11.6875 C25.8515625,11.6875 31.7109375,18.4375 31.7109375,29.078125 C31.7109375,36.015625 29.203125,41.3828125 24.8203125,44.21875 L29.15625,50.1484375 L27.0234375,50.1484375 L23.296875,45.0625 C21.328125,46 19.1015625,46.4921875 16.640625,46.4921875 Z M16.640625,44.7578125 C18.6796875,44.7578125 20.578125,44.359375 22.21875,43.5859375 L17.625,37.28125 L19.7578125,37.28125 L23.7421875,42.7421875 C27.65625,40.1875 29.7890625,35.3359375 29.7890625,29.078125 C29.7890625,19.515625 24.6796875,13.421875 16.640625,13.421875 C8.6015625,13.421875 3.46875,19.515625 3.46875,29.078125 C3.46875,38.6640625 8.625,44.7578125 16.640625,44.7578125 Z M55.6171875,21.625 L53.7890625,21.625 L53.7890625,36.203125 C53.7890625,41.359375 50.296875,44.6875 45.6796875,44.6875 C41.25,44.6875 38.3203125,41.921875 38.3203125,37.1640625 L38.3203125,21.625 L36.515625,21.625 L36.515625,37.4453125 C36.515625,42.8828125 40.0546875,46.328125 45.3046875,46.328125 C49.3359375,46.328125 52.7578125,43.9609375 53.8359375,40.6796875 L53.90625,40.6796875 L53.90625,46 L55.6171875,46 L55.6171875,21.625 Z M61.2421875,46 L63.046875,46 L63.046875,21.625 L61.2421875,21.625 L61.2421875,46 Z M62.15625,15.625 C62.9296875,15.625 63.5859375,14.9921875 63.5859375,14.1953125 C63.5859375,13.3984375 62.9296875,12.7890625 62.15625,12.7890625 C61.359375,12.7890625 60.703125,13.3984375 60.703125,14.1953125 C60.703125,14.9921875 61.359375,15.625 62.15625,15.625 Z M87.9609375,28.984375 C87.234375,24.6484375 83.4375,21.296875 78.1875,21.296875 C71.671875,21.296875 67.453125,26.171875 67.453125,33.8125 C67.453125,41.5 71.6484375,46.328125 78.2109375,46.328125 C83.390625,46.328125 87.2109375,43.2578125 87.9375,38.8515625 L86.1328125,38.8515625 C85.40625,42.34375 82.359375,44.6875 78.2109375,44.6875 C72.75,44.6875 69.28125,40.46875 69.28125,33.8125 C69.28125,27.1796875 72.75,22.9375 78.1875,22.9375 C82.40625,22.9375 85.453125,25.4921875 86.15625,28.984375 L87.9609375,28.984375 Z M94.03125,34.1171875 L107.742188,21.625 L110.109375,21.625 L98.6953125,32.125 L110.226563,46 L108,46 L97.3125,33.25 L94.0078125,36.203125 L94.0078125,46 L92.203125,46 L92.203125,12.1796875 L94.0078125,12.1796875 L94.0078125,34.1171875 L94.03125,34.1171875 Z M122.109375,46 L120.257813,46 L120.257813,13.890625 L108.398438,13.890625 L108.398438,12.1796875 L133.945313,12.1796875 L133.945313,13.890625 L122.109375,13.890625 L122.109375,46 Z M162.9375,21.625 L155.835938,46 L153.726562,46 L146.929688,23.96875 L146.859375,23.96875 L140.109375,46 L137.953125,46 L130.875,21.625 L132.773438,21.625 L139.03125,43.984375 L139.078125,43.984375 L145.875,21.625 L147.9375,21.625 L154.710938,43.984375 L154.78125,43.984375 L161.015625,21.625 L162.9375,21.625 Z M166.054688,46 L167.859375,46 L167.859375,21.625 L166.054688,21.625 L166.054688,46 Z M166.96875,15.625 C167.742188,15.625 168.398438,14.9921875 168.398438,14.1953125 C168.398438,13.3984375 167.742188,12.7890625 166.96875,12.7890625 C166.171875,12.7890625 165.515625,13.3984375 165.515625,14.1953125 C165.515625,14.9921875 166.171875,15.625 166.96875,15.625 Z M174.84375,15.2265625 L174.84375,21.625 L171.210938,21.625 L171.210938,23.1953125 L174.84375,23.1953125 L174.84375,40.4453125 C174.84375,44.4765625 176.367188,46.046875 179.929688,46.046875 C180.210938,46.046875 181.710938,46.0234375 181.875,46 L181.875,44.3828125 C181.78125,44.40625 180.304688,44.4296875 180.1875,44.4296875 C177.726562,44.4296875 176.648438,43.28125 176.648438,40.375 L176.648438,23.1953125 L181.546875,23.1953125 L181.546875,21.625 L176.648438,21.625 L176.648438,15.2265625 L174.84375,15.2265625 Z M204.28125,28.984375 C203.554688,24.6484375 199.757813,21.296875 194.507813,21.296875 C187.992188,21.296875 183.773438,26.171875 183.773438,33.8125 C183.773438,41.5 187.96875,46.328125 194.53125,46.328125 C199.710938,46.328125 203.53125,43.2578125 204.257813,38.8515625 L202.453125,38.8515625 C201.726563,42.34375 198.679688,44.6875 194.53125,44.6875 C189.070313,44.6875 185.601563,40.46875 185.601563,33.8125 C185.601563,27.1796875 189.070313,22.9375 194.507813,22.9375 C198.726563,22.9375 201.773438,25.4921875 202.476563,28.984375 L204.28125,28.984375 Z M208.523438,46 L210.328125,46 L210.328125,31.5390625 C210.328125,26.453125 213.632813,22.9375 218.414063,22.9375 C222.9375,22.9375 225.914063,25.8203125 225.914063,30.5078125 L225.914063,46 L227.71875,46 L227.71875,30.296875 C227.71875,24.8359375 224.15625,21.296875 218.8125,21.296875 C214.710938,21.296875 211.523438,23.546875 210.398438,26.96875 L210.328125,26.96875 L210.328125,12.1796875 L208.523438,12.1796875 L208.523438,46 Z" id="QuickTwitch"></path>
        </g>
    </g>
</svg>