<?xml version="1.0" encoding="UTF-8"?>
<svg viewBox="0 0 120 120" version="1.1" xmlns="http://www.w3.org/2000/svg" xmlns:xlink="http://www.w3.org/1999/xlink">
    <!-- Generator: Sketch 48.2 (47327) - http://www.bohemiancoding.com/sketch -->
    <title>gear</title>
    <desc>Created with Sketch.</desc>
    <defs></defs>
    <g id="Page-1" stroke="none" stroke-width="1" fill-rule="evenodd">
        <g id="gear" fill="inherit" fill-rule="nonzero">
            <path d="M60,120 C26.862915,120 0,93.137085 0,60 C0,26.862915 26.862915,1.66533454e-16 60,1.66533454e-16 C93.137085,1.66533454e-16 120,26.862915 120,60 C120,93.137085 93.137085,120 60,120 Z M92,65.9456581 L92,54.1878776 L84.8,52.9853695 C84.2667429,50.9811893 83.4667429,49.1105449 82.5332571,47.5072007 L86.8,41.628425 L78.5332571,33.2108684 L72.5332571,37.3527643 C70.8,36.4175566 68.9332571,35.6158846 67.0667429,35.0812838 L65.8667429,28 L54.1332571,28 L52.9332571,35.2150485 C50.9332571,35.7494202 49.2,36.5510923 47.4667429,37.4863 L41.6,33.344404 L33.2,41.628425 L37.4667429,47.5072007 C36.5334857,49.2443096 35.7334857,51.114725 35.2,53.1189051 L28,54.1878776 L28,65.9456581 L35.2,67.1481662 C35.7332571,69.1523463 36.5332571,70.8894551 37.4667429,72.6263349 L33.2,78.6388754 L41.4667429,86.9228963 L47.4667429,82.6472357 C49.2,83.5824434 51.0667429,84.3841154 53.0667429,84.9187162 L54.2667429,92 L66,92 L67.2,84.7849515 C69.0667429,84.2505798 70.9332571,83.4489077 72.6667429,82.5137 L78.6667429,86.7891316 L86.9332571,78.5053397 L82.6667429,72.4927993 C83.6,70.7556904 84.4,69.0188107 84.9332571,67.0146305 L92,65.9456581 Z M60,72 C53.3478674,72 48,66.6523064 48,60.0001118 C48,53.3479172 53.4782268,48 60,48 C66.5217732,48 72,53.3479172 72,60.0001118 C72,66.6523064 66.6521326,72 60,72 Z" id="Shape"></path>
        </g>
    </g>
</svg>
