<?xml version="1.0" encoding="UTF-8"?>
<svg viewBox="0 0 120 120" version="1.1" xmlns="http://www.w3.org/2000/svg" xmlns:xlink="http://www.w3.org/1999/xlink">
    <!-- Generator: Sketch 48.2 (47327) - http://www.bohemiancoding.com/sketch -->
    <title>battery</title>
    <desc>Created with Sketch.</desc>
    <defs></defs>
    <g id="Page-1" stroke="none" stroke-width="1" fill="inherit" fill-rule="evenodd">
        <g id="battery">
            <g id="Group">
                <path d="M97,54 L97,43.9976599 C97,42.3524401 95.6601944,41 94.0074604,41 L25.9925396,41 C24.3475781,41 23,42.342098 23,43.9976599 L23,76.0023401 C23,77.6475599 24.3398056,79 25.9925396,79 L94.0074604,79 C95.6524219,79 97,77.657902 97,76.0023401 L97,66 L98.0020869,66 C99.1017394,66 100,65.1007504 100,63.9914698 L100,56.0085302 C100,54.9019504 99.1055038,54 98.0020869,54 L97,54 Z M60,120 C26.862915,120 0,93.137085 0,60 C0,26.862915 26.862915,0 60,0 C93.137085,0 120,26.862915 120,60 C120,93.137085 93.137085,120 60,120 Z M28,44 L72,44 C73.1045695,44 74,44.8954305 74,46 L74,74 C74,75.1045695 73.1045695,76 72,76 L28,76 C26.8954305,76 26,75.1045695 26,74 L26,46 C26,44.8954305 26.8954305,44 28,44 Z" id="Combined-Shape"></path>
            </g>
        </g>
    </g>
</svg>
