<?xml version="1.0" encoding="UTF-8"?>
<svg width="80px" height="80px" viewBox="0 0 80 80" version="1.1" xmlns="http://www.w3.org/2000/svg" xmlns:xlink="http://www.w3.org/1999/xlink">
    <!-- Generator: Sketch 43.2 (39069) - http://www.bohemiancoding.com/sketch -->
    <title>email</title>
    <desc>Created with Sketch.</desc>
    <defs>
        <path d="M73.7368108,63 L6.70661764,63 L35.5735643,42.7871464 L39.5138434,45.5461595 C39.8809831,45.8032335 40.305095,45.9192445 40.7217142,45.9054826 C41.1383334,45.9192445 41.5624453,45.8032335 41.929585,45.5461595 L45.3698641,43.1372501 L73.7368108,63 Z M77,60.4018114 L48.8567577,40.6957009 L77,20.9895905 L77,60.4018114 Z M45.037908,38.48659 L40.7217142,41.5088214 L5.7194898,17 L75.0015322,17 C75.2083044,17 75.4077422,17.0315252 75.5953367,17.090048 L45.3698641,38.2541518 L45.2563284,38.1746532 L45.037908,38.48659 Z M3,60.7123033 L3,19.9788911 L32.0866707,40.3455972 L3,60.7123033 Z" id="path-1"></path>
    </defs>
    <g id="Page-1" stroke="none" stroke-width="1" fill="none" fill-rule="evenodd" stroke-linejoin="round">
        <g id="email">
            <g id="Combined-Shape">
                <use fill="#000000" fill-rule="evenodd" xlink:href="#path-1"></use>
                <path stroke="#000000" stroke-width="1" d="M73.7368108,63.5 L75.3226082,63.5 L74.023599,62.590424 L45.6566523,42.7276741 L45.3698641,42.5268628 L45.0830759,42.7276741 L41.6427968,45.1365835 C41.3743247,45.3245696 41.0591863,45.4163574 40.7382214,45.4057551 C40.3842421,45.4163574 40.0691037,45.3245696 39.8006316,45.1365835 L35.8603525,42.3775703 L35.5735643,42.1767591 L35.2867761,42.3775703 L6.41982943,62.590424 L5.12082024,63.5 L6.70661764,63.5 L73.7368108,63.5 Z M76.7132118,60.8113874 L77.5,61.3623024 L77.5,60.4018114 L77.5,20.9895905 L77.5,20.0290995 L76.7132118,20.5800145 L48.5699695,40.2861249 L47.9850343,40.6957009 L48.5699695,41.105277 L76.7132118,60.8113874 Z M45.3618998,38.8589624 L45.3698641,38.8645391 L45.6566523,38.6637278 L75.8821249,17.4996241 L76.7158504,16.9158432 L75.7442414,16.6127354 C75.5055614,16.5382756 75.2558202,16.5 75.0015322,16.5 L5.7194898,16.5 L4.1336924,16.5 L5.43270158,17.409576 L40.434926,41.9183974 L40.7217142,42.1192087 L41.0085024,41.9183974 L45.3246962,38.896166 L45.3618998,38.8589624 Z M2.5,60.7123033 L2.5,61.6727943 L3.28678822,61.1218793 L32.3734589,40.7551732 L32.9583941,40.3455972 L32.3734589,39.9360212 L3.28678822,19.5693151 L2.5,19.0184 L2.5,19.9788911 L2.5,60.7123033 Z"></path>
            </g>
        </g>
    </g>
</svg>