<?xml version="1.0" standalone="no"?>
<!DOCTYPE svg PUBLIC "-//W3C//DTD SVG 20010904//EN"
 "http://www.w3.org/TR/2001/REC-SVG-20010904/DTD/svg10.dtd">
<svg version="1.0" xmlns="http://www.w3.org/2000/svg"
 width="700.000000pt" height="700.000000pt" viewBox="0 0 700.000000 700.000000"
 preserveAspectRatio="xMidYMid meet">
<metadata>
Created by potrace 1.11, written by Peter Selinger 2001-2013
</metadata>
<g transform="translate(0.000000,700.000000) scale(0.100000,-0.100000)"
fill="#000000" stroke="none">
<path d="M1630 3555 l0 -1915 260 0 260 0 0 910 0 910 940 0 940 0 0 -910 0
-910 260 0 260 0 0 1915 0 1915 -260 0 -260 0 0 -785 0 -785 -940 0 -940 0 0
785 0 785 -260 0 -260 0 0 -1915z"/>
<path d="M5522 2288 c-103 -16 -184 -75 -231 -169 -39 -78 -47 -148 -27 -227
27 -108 81 -173 181 -218 49 -23 74 -28 136 -28 67 0 86 5 143 33 114 56 176
158 176 291 0 208 -169 350 -378 318z"/>
</g>
</svg>
