<?xml version="1.0" encoding="UTF-8"?>
<svg viewBox="0 0 120 120" version="1.1" xmlns="http://www.w3.org/2000/svg" xmlns:xlink="http://www.w3.org/1999/xlink">
    <!-- Generator: Sketch 48.2 (47327) - http://www.bohemiancoding.com/sketch -->
    <title>block</title>
    <desc>Created with Sketch.</desc>
    <defs></defs>
    <g id="Page-1" stroke="none" stroke-width="1" fill-rule="evenodd">
        <g id="block" fill="inherit" fill-rule="nonzero">
            <g id="img_569474" transform="translate(-1.000000, 0.000000)">
                <g id="Group" transform="translate(60.578082, 60.000000) scale(-1, 1) rotate(-180.000000) translate(-60.578082, -60.000000) translate(0.078082, 0.000000)">
                    <path d="M60.9219178,120 C27.7848328,120 0.921917808,93.137085 0.921917808,60 C0.921917808,26.862915 27.7848328,0 60.9219178,0 C94.0590028,0 120.921918,26.862915 120.921918,60 C120.921918,93.137085 94.0590028,120 60.9219178,120 Z M46.7135846,87.9040636 C54.4822113,90.7251288 61.0240665,93.0276568 61.2631653,93.0283509 C61.8629975,93.04154 89.9244422,82.861687 90.3240987,82.4889232 C90.8843128,81.9696917 91.0170682,81.5170996 91.217244,79.3749225 C92.4162134,66.5329669 91.2839693,55.50138 87.8594346,46.7980049 C86.353251,42.9655488 84.0484495,38.9998141 81.7165409,36.2183159 C80.3041897,34.5280369 77.7860064,32.1061135 76.2269986,30.948255 C71.6034945,27.4885628 65.3410514,25 61.3034785,25 C57.2659055,25 51.0166685,27.4885628 46.3799583,30.948255 C44.8209506,32.1061135 42.0233553,34.8209723 40.7173475,36.4175398 C38.412546,39.2517941 36.2140878,43.0578721 34.7482174,46.7973107 C31.3236828,55.5006858 30.1782326,66.6259843 31.3911031,79.4276787 C31.5905838,81.5032164 31.7240343,81.9689976 32.2835533,82.4882291 C32.469828,82.6742639 37.8398209,84.6838564 46.7135846,87.9040636 Z M61.2347822,80.1461475 C60.7023702,80.5452894 59.3699503,80.5848565 58.7159038,80.2259759 C58.4364918,80.0795082 58.1431787,79.826834 58.0500414,79.6539883 C57.9165909,79.4276922 57.8637667,77.47155 57.8102475,71.1373421 L57.7435222,62.8997482 L57.4237971,62.6470741 C57.0109346,62.3145715 56.7975528,62.3277606 56.4111023,62.7269024 L56.0781711,63.0462159 L56.0781711,69.6733592 C56.0781711,76.007567 56.0649651,76.3136915 55.8119651,76.7260224 C55.4658279,77.2987042 54.9063088,77.5645674 54.0131635,77.5645674 C53.1207132,77.5645674 52.5604991,77.29801 52.2143619,76.7260224 C51.9613619,76.3136915 51.9481559,76.007567 51.9481559,69.1673167 C51.9481559,62.247238 51.9349499,62.034131 51.6819499,61.7946459 C51.5484994,61.6745562 51.2683924,61.5683498 51.0821177,61.5683498 C50.348835,61.5683498 50.3627361,61.4350711 50.3224229,67.3569481 C50.2828048,72.8130438 50.2828048,72.840116 49.9762856,73.265636 C49.2033848,74.3561609 47.2579266,74.3429719 46.5385449,73.2253747 C46.285545,72.8664941 46.2188197,70.93673 45.9790259,59.3859115 C45.8462704,53.3175669 45.9262017,51.4148749 46.4189955,48.9929515 C47.1647892,45.3069632 48.1239648,43.2175423 49.8831483,41.4342459 C51.1224309,40.1701809 52.2678811,39.3982753 53.7205455,38.8394767 C55.5992784,38.1071381 56.3450721,37.9877427 58.743706,38.0009317 C61.181958,38.0009317 62.4608587,38.2536058 64.4862482,39.0921508 C67.3248517,40.2763874 70.5756227,43.2036591 71.8948366,45.8123115 C72.6941495,47.3825009 77.144585,58.4939162 77.157791,58.9465084 C77.170997,59.6378915 76.8116537,60.2105733 76.1318902,60.6097152 C75.0260581,61.2490363 73.7200503,61.0227402 73.1605312,60.1043669 C73.0138747,59.8648817 72.0943173,57.9621898 71.1351418,55.8727689 C70.1627602,53.7840422 69.2696149,51.9743677 69.1632715,51.8542781 C68.8970655,51.5481536 68.3104393,51.5481536 68.0310273,51.8542781 C67.8176455,52.0805742 67.8044395,53.1447211 67.8044395,64.349848 L67.8044395,76.5927437 L67.4979203,77.0453359 C66.6847063,78.2698337 64.6732179,78.2698337 63.9135231,77.0453359 C63.607004,76.5663656 63.607004,76.5531766 63.5402787,69.6067199 C63.4735535,62.0348252 63.5131716,62.3943999 62.7270647,62.3943999 C62.54079,62.3943999 62.287095,62.5006064 62.1675456,62.633885 C61.9673698,62.8601811 61.9409578,63.6320868 61.9409578,71.0575138 C61.9409578,79.826834 61.9541638,79.613727 61.2347822,80.1461475 Z" id="Shape"></path>
                </g>
            </g>
        </g>
    </g>
</svg>
