<?xml version="1.0" encoding="UTF-8"?>
<svg width="120px" height="120px" viewBox="0 0 120 120" version="1.1" xmlns="http://www.w3.org/2000/svg" xmlns:xlink="http://www.w3.org/1999/xlink">
    <!-- Generator: Sketch 43.2 (39069) - http://www.bohemiancoding.com/sketch -->
    <title>block</title>
    <desc>Created with Sketch.</desc>
    <defs></defs>
    <g id="Page-1" stroke="none" stroke-width="1" fill="none" fill-rule="evenodd">
        <g id="block" fill-rule="nonzero" fill="#000000">
            <g id="img_569474" transform="translate(22.000000, 18.000000)">
                <g id="Group" transform="translate(38.000000, 42.538991) scale(-1, 1) rotate(-180.000000) translate(-38.000000, -42.538991) translate(0.078082, 0.077982)">
                    <path d="M19.7131507,78.5179918 C8.63675799,74.4984709 1.93383562,71.9900612 1.7013242,71.7578491 C1.00292237,71.109735 0.836347032,70.5283384 0.587351598,67.9376147 C-0.926575342,51.9583078 0.503196347,38.0715087 4.77776256,27.2077982 C6.60748858,22.5401631 9.35164384,17.7893476 12.2285388,14.25158 C13.8587215,12.2587156 17.3507306,8.86997961 19.2967123,7.42471967 C25.0843379,3.10626911 32.8847489,0 37.9245205,0 C42.9642922,0 50.7811872,3.10626911 56.5523288,7.42471967 C58.4983105,8.86997961 61.6415525,11.8930683 63.4044749,14.0029052 C66.3152055,17.4748216 69.1921005,22.4249235 71.0721461,27.2086646 C75.3467123,38.0723751 76.76,51.8422018 75.2634247,67.8717635 C75.0135616,70.5456677 74.8478539,71.1106014 74.1485845,71.7587156 C73.649726,72.2240061 38.6229224,84.930683 37.8742009,84.9142202 C37.5757534,84.9133537 29.4100913,82.0392966 19.7131507,78.5179918 Z M40.203653,69.2165138 C41.1015982,68.5519368 41.0851142,68.8179409 41.0851142,57.8719164 C41.0851142,48.6033639 41.1180822,47.6398573 41.3679452,47.3573904 C41.5171689,47.1910296 41.8338356,47.0584608 42.066347,47.0584608 C43.0475799,47.0584608 42.9981279,46.609633 43.0814155,56.0610092 C43.1647032,64.7317023 43.1647032,64.7481651 43.5473059,65.3460245 C44.4955708,66.8744648 47.006347,66.8744648 48.0214155,65.3460245 L48.4040183,64.7810907 L48.4040183,49.4992864 C48.4040183,35.512844 48.4205023,34.1845566 48.6868493,33.9020897 C49.0356164,33.5199796 49.7678539,33.5199796 50.100137,33.9020897 C50.2328767,34.0519878 51.3477169,36.3108563 52.5614612,38.9180428 C53.7587215,41.5260958 54.9065297,43.9010703 55.089589,44.2 C55.7879909,45.3463303 57.4181735,45.6287971 58.7984932,44.8307849 C59.6469863,44.3325688 60.0955251,43.617737 60.0790411,42.7547401 C60.0625571,42.1898063 54.5074429,28.3203364 53.509726,26.3603976 C51.8630594,23.1042304 47.8053881,19.4503568 44.2621918,17.9721713 C41.7340639,16.9254842 40.1377169,16.6100917 37.0942466,16.6100917 C34.1002283,16.593629 33.1693151,16.7426606 30.8242466,17.6567788 C29.0110046,18.3542813 27.5812329,19.317788 26.0343379,20.8956167 C23.8384932,23.1215596 22.6412329,25.7296126 21.7103196,30.3305301 C21.0952055,33.3536188 20.9954338,35.7285933 21.1611416,43.303211 C21.4604566,57.7211519 21.5437443,60.1299185 21.8595434,60.5778797 C22.7574886,61.9728848 25.1858447,61.9893476 26.1505936,60.6281346 C26.5331963,60.0969929 26.5331963,60.0632008 26.5826484,53.2528033 C26.632968,45.8610092 26.6156164,46.02737 27.5309132,46.02737 C27.7634247,46.02737 28.1130594,46.1599388 28.2796347,46.3098369 C28.5954338,46.6087666 28.6119178,46.8747706 28.6119178,55.5125382 C28.6119178,64.0506626 28.6284018,64.4327727 28.9442009,64.9474516 C29.3762557,65.6614169 30.0755251,65.9941386 31.1894977,65.9941386 C32.3043379,65.9941386 33.0027397,65.6622834 33.4347945,64.9474516 C33.7505936,64.4327727 33.7670776,64.0506626 33.7670776,56.1441896 L33.7670776,47.8720693 L34.1826484,47.4734964 C34.6650228,46.9752803 34.9313699,46.9588175 35.4467123,47.3738532 L35.8457991,47.6892457 L35.9290868,57.9715596 C35.9958904,65.8780326 36.0618265,68.3197248 36.2284018,68.6021916 C36.3446575,68.8179409 36.7107763,69.1333333 37.0595434,69.316157 C37.8759361,69.7641182 39.5390868,69.7147299 40.203653,69.2165138 Z" id="Shape"></path>
                </g>
            </g>
        </g>
    </g>
</svg>