<?xml version="1.0" encoding="UTF-8"?>
<svg viewBox="0 0 120 120" version="1.1" xmlns="http://www.w3.org/2000/svg" xmlns:xlink="http://www.w3.org/1999/xlink">
    <!-- Generator: Sketch 48.2 (47327) - http://www.bohemiancoding.com/sketch -->
    <title>dollar</title>
    <desc>Created with Sketch.</desc>
    <defs></defs>
    <g id="Page-1" stroke="none" stroke-width="1" fill-rule="evenodd">
        <g id="dollar" fill="inherit">
            <path d="M60,120 C26.862915,120 0,93.137085 0,60 C0,26.862915 26.862915,0 60,0 C93.137085,0 120,26.862915 120,60 C120,93.137085 93.137085,120 60,120 Z M66.4488937,103.976255 L66.1710739,91.3817593 C77.283864,89.2518079 82.840259,81.5654614 82.840259,73.2308689 C82.840259,64.4332434 78.0247167,60.5437669 67.4675661,55.7282245 L62.9298435,53.6908797 C57.0956287,51.0052887 53.6691851,48.9679439 53.6691851,45.1710739 C53.6691851,41.7446303 56.1695629,39.2442526 60.9851052,39.2442526 C66.1710739,39.2442526 70.3383702,41.8372369 73.0239611,44.5228278 L81.0807339,34.9843497 C80.3398813,33.9656773 76.172585,29.3353481 67.2823529,27.8536427 L67.5601727,16 L56.2621695,16 L56.6325958,27.8536427 C47.0015111,29.6131678 39.5929843,36.2808419 39.5929843,46.2823529 C39.5929843,53.6908797 43.5750675,59.4324879 53.2061522,63.6923907 L58.7625472,66.1927685 C65.8932542,69.4339989 68.8566649,71.0083108 68.8566649,74.7125742 C68.8566649,78.0464112 66.2636805,80.4541824 60.9851052,80.4541824 C53.4839719,80.4541824 47.464544,76.1942795 44.6863465,73.6012952 L37,83.9732326 C39.5929843,86.2883972 45.3345926,90.8261198 55.4287102,91.8447922 L55.1508904,103.976255 L66.4488937,103.976255 Z" id="Combined-Shape"></path>
        </g>
    </g>
</svg>
