<?xml version="1.0" encoding="UTF-8"?>
<svg width="120px" height="120px" viewBox="0 0 120 120" version="1.1" xmlns="http://www.w3.org/2000/svg" xmlns:xlink="http://www.w3.org/1999/xlink">
    <!-- Generator: Sketch 43.2 (39069) - http://www.bohemiancoding.com/sketch -->
    <title>dollar</title>
    <desc>Created with Sketch.</desc>
    <defs></defs>
    <g id="Page-1" stroke="none" stroke-width="1" fill="none" fill-rule="evenodd">
        <g id="dollar" fill="#000000">
            <path d="M65.4862385,103.66843 L65.2084188,91.0739342 C76.3212089,88.9439827 81.8776039,81.2576363 81.8776039,72.9230437 C81.8776039,64.1254182 77.0620615,60.2359417 66.504911,55.4203994 L61.9671883,53.3830545 C56.1329736,50.6974636 52.70653,48.6601187 52.70653,44.8632488 C52.70653,41.4368052 55.2069077,38.9364274 60.0224501,38.9364274 C65.2084188,38.9364274 69.3757151,41.5294118 72.061306,44.2150027 L80.1180788,34.6765246 C79.3772261,33.6578521 75.2099298,29.0275229 66.3196978,27.5458176 L66.5975175,15.6921749 L55.2995143,15.6921749 L55.6699406,27.5458176 C46.0388559,29.3053427 38.6303292,35.9730167 38.6303292,45.9745278 C38.6303292,53.3830545 42.6124123,59.1246627 52.243497,63.3845656 L57.7998921,65.8849433 C64.930599,69.1261738 67.8940097,70.7004857 67.8940097,74.4047491 C67.8940097,77.7385861 65.3010254,80.1463573 60.0224501,80.1463573 C52.5213168,80.1463573 46.5018888,75.8864544 43.7236913,73.29347 L36.0373448,83.6654074 C38.6303292,85.980572 44.3719374,90.5182947 54.466055,91.5369671 L54.1882353,103.66843 L65.4862385,103.66843 Z" id="$"></path>
        </g>
    </g>
</svg>