<?xml version="1.0" encoding="UTF-8"?>
<svg width="42px" height="42px" viewBox="0 0 42 42" version="1.1" xmlns="http://www.w3.org/2000/svg" xmlns:xlink="http://www.w3.org/1999/xlink">
    <!-- Generator: Sketch 43.2 (39069) - http://www.bohemiancoding.com/sketch -->
    <title>face</title>
    <desc>Created with Sketch.</desc>
    <defs>
        <circle id="path-1" cx="21" cy="21" r="21"></circle>
    </defs>
    <g id="Page-1" stroke="none" stroke-width="1" fill="none" fill-rule="evenodd">
        <g id="Oval">
            <use fill="#00BBFF" fill-rule="evenodd" xlink:href="#path-1"></use>
            <circle stroke-opacity="0.3" stroke="#000000" stroke-width="2" cx="21" cy="21" r="20"></circle>
        </g>
        <g id="face">
            <g id="Group" transform="translate(11.000000, 6.000000)">
                <g id="skin" transform="translate(0.000000, 5.000000)" fill="#F4D39F">
                    <rect id="Rectangle" x="0" y="6" width="1" height="6"></rect>
                    <rect id="Rectangle-Copy" x="19" y="6" width="1" height="6"></rect>
                    <rect id="Rectangle-2" x="2" y="0" width="16" height="16"></rect>
                </g>
                <g id="hair" transform="translate(1.000000, 0.000000)">
                    <rect id="Rectangle-3" fill="#3D2000" x="0" y="4" width="1" height="16"></rect>
                    <rect id="Rectangle-4" fill="#3D2000" x="1" y="3" width="1" height="8"></rect>
                    <rect id="Rectangle-4-Copy" fill="#3D2000" x="2" y="2" width="1" height="6"></rect>
                    <rect id="Rectangle-4-Copy-2" fill="#3D2000" x="3" y="1" width="1" height="7"></rect>
                    <rect id="Rectangle-4-Copy-3" fill="#3D2000" x="4" y="0" width="1" height="7"></rect>
                    <rect id="Rectangle-4-Copy-4" fill="#3D2000" x="5" y="0" width="1" height="8"></rect>
                    <rect id="Rectangle-4-Copy-5" fill="#3D2000" x="6" y="0" width="1" height="6"></rect>
                    <rect id="Rectangle-4-Copy-6" fill="#3D2000" x="7" y="0" width="1" height="7"></rect>
                    <rect id="Rectangle-4-Copy-7" fill="#3D2000" x="9" y="0" width="1" height="7"></rect>
                    <rect id="Rectangle-4-Copy-8" fill="#3D2000" x="10" y="0" width="1" height="7"></rect>
                    <rect id="Rectangle-4-Copy-10" fill="#3D2000" x="11" y="0" width="1" height="7"></rect>
                    <rect id="Rectangle-4-Copy-12" fill="#3D2000" x="14" y="1" width="1" height="6"></rect>
                    <rect id="Rectangle-4-Copy-12" fill="#3D2000" x="10" y="7" width="1" height="1"></rect>
                    <rect id="Rectangle-4-Copy-13" fill="#3D2000" x="15" y="4" width="1" height="5"></rect>
                    <rect id="Rectangle-4-Copy-14" fill="#3D2000" x="16" y="3" width="1" height="8"></rect>
                    <rect id="Rectangle-4-Copy-15" fill="#3D2000" x="17" y="4" width="1" height="16"></rect>
                    <rect id="Rectangle-7" fill="#3D2000" x="15" y="19" width="2" height="6"></rect>
                    <rect id="Rectangle-8" fill="#3D2000" x="1" y="19" width="2" height="6"></rect>
                    <rect id="Rectangle-9" fill="#3D2000" x="2" y="21" width="14" height="6"></rect>
                    <rect id="Rectangle-10" fill="#3D2000" x="3" y="27" width="12" height="1"></rect>
                    <rect id="Rectangle-11" fill="#3D2000" x="4" y="28" width="10" height="1"></rect>
                    <rect id="Rectangle-6" fill="#3D2000" x="13" y="1" width="1" height="6"></rect>
                    <rect id="Rectangle-4-Copy-11" fill="#3D2000" x="12" y="0" width="1" height="6"></rect>
                    <rect id="Rectangle-4-Copy-9" fill="#3D2000" x="8" y="0" width="1" height="6"></rect>
                    <rect id="Rectangle-25" fill="#4D2900" x="2" y="22" width="1" height="1"></rect>
                    <rect id="Rectangle-25-Copy" fill="#4D2900" x="1" y="20" width="1" height="1"></rect>
                    <rect id="Rectangle-25-Copy-2" fill="#4D2900" x="4" y="21" width="1" height="1"></rect>
                    <rect id="Rectangle-25-Copy-3" fill="#4D2900" x="3" y="24" width="1" height="1"></rect>
                    <rect id="Rectangle-25-Copy-4" fill="#4D2900" x="1" y="23" width="1" height="1"></rect>
                    <rect id="Rectangle-25-Copy-5" fill="#4D2900" x="2" y="26" width="1" height="1"></rect>
                    <rect id="Rectangle-25-Copy-6" fill="#4D2900" x="4" y="26" width="1" height="1"></rect>
                    <rect id="Rectangle-25-Copy-7" fill="#4D2900" x="5" y="27" width="1" height="1"></rect>
                    <rect id="Rectangle-25-Copy-8" fill="#4D2900" x="4" y="28" width="1" height="1"></rect>
                    <rect id="Rectangle-25-Copy-9" fill="#4D2900" x="7" y="28" width="1" height="1"></rect>
                    <rect id="Rectangle-25-Copy-10" fill="#4D2900" x="9" y="27" width="1" height="1"></rect>
                    <rect id="Rectangle-25-Copy-20" fill="#4D2900" x="7" y="26" width="1" height="1"></rect>
                    <rect id="Rectangle-25-Copy-11" fill="#4D2900" x="11" y="28" width="1" height="1"></rect>
                    <rect id="Rectangle-25-Copy-12" fill="#4D2900" x="12" y="27" width="1" height="1"></rect>
                    <rect id="Rectangle-25-Copy-13" fill="#4D2900" x="14" y="27" width="1" height="1"></rect>
                    <rect id="Rectangle-25-Copy-14" fill="#4D2900" x="13" y="25" width="1" height="1"></rect>
                    <rect id="Rectangle-25-Copy-29" fill="#4D2900" x="15" y="25" width="1" height="1"></rect>
                    <rect id="Rectangle-25-Copy-15" fill="#4D2900" x="15" y="26" width="1" height="1"></rect>
                    <rect id="Rectangle-25-Copy-16" fill="#4D2900" x="13" y="24" width="1" height="1"></rect>
                    <rect id="Rectangle-25-Copy-17" fill="#4D2900" x="15" y="23" width="1" height="1"></rect>
                    <rect id="Rectangle-25-Copy-27" fill="#4D2900" x="14" y="22" width="1" height="1"></rect>
                    <rect id="Rectangle-25-Copy-28" fill="#4D2900" x="14" y="22" width="1" height="1"></rect>
                    <rect id="Rectangle-25-Copy-18" fill="#4D2900" x="13" y="21" width="1" height="1"></rect>
                    <rect id="Rectangle-25-Copy-19" fill="#4D2900" x="10" y="21" width="1" height="1"></rect>
                    <rect id="Rectangle-25-Copy-21" fill="#4D2900" x="8" y="21" width="1" height="1"></rect>
                    <rect id="Rectangle-25-Copy-21" fill="#3D2000" x="5" y="20" width="8" height="1"></rect>
                    <rect id="Rectangle-25-Copy-22" fill="#4D2900" x="15" y="20" width="1" height="1"></rect>
                    <rect id="Rectangle-25-Copy-23" fill="#4D2900" x="16" y="22" width="1" height="1"></rect>
                    <rect id="Rectangle-25-Copy-24" fill="#4D2900" x="17" y="19" width="1" height="1"></rect>
                    <rect id="Rectangle-25-Copy-25" fill="#4D2900" x="2" y="19" width="1" height="1"></rect>
                    <rect id="Rectangle-25-Copy-26" fill="#4D2900" x="0" y="18" width="1" height="1"></rect>
                    <path d="M9,20 L10,20 L10,21 L9,21 L9,20 Z M6,20 L7,20 L7,21 L6,21 L6,20 Z M12,20 L13,20 L13,21 L12,21 L12,20 Z M5,21 L6,21 L6,22 L5,22 L5,21 Z" id="Rectangle-26" fill="#4D2900"></path>
                    <rect id="Rectangle-26-Copy" fill="#281500" x="1" y="7" width="1" height="1"></rect>
                    <rect id="Rectangle-26-Copy-11" fill="#281500" x="0" y="6" width="1" height="1"></rect>
                    <rect id="Rectangle-26-Copy-11" fill="#281500" x="3" y="5" width="1" height="1"></rect>
                    <rect id="Rectangle-26-Copy-11" fill="#281500" x="10" y="4" width="1" height="1"></rect>
                    <rect id="Rectangle-26-Copy-11" fill="#281500" x="15" y="2" width="1" height="1"></rect>
                    <rect id="Rectangle-26-Copy-2" fill="#281500" x="3" y="1" width="1" height="1"></rect>
                    <rect id="Rectangle-26-Copy-3" fill="#281500" x="5" y="4" width="1" height="1"></rect>
                    <rect id="Rectangle-26-Copy-4" fill="#281500" x="6" y="0" width="1" height="1"></rect>
                    <rect id="Rectangle-26-Copy-5" fill="#281500" x="8" y="4" width="1" height="1"></rect>
                    <rect id="Rectangle-26-Copy-5" fill="#281500" x="7" y="3" width="1" height="1"></rect>
                    <rect id="Rectangle-26-Copy-5" fill="#281500" x="5" y="6" width="1" height="1"></rect>
                    <rect id="Rectangle-26-Copy-5" fill="#281500" x="13" y="6" width="1" height="1"></rect>
                    <rect id="Rectangle-26-Copy-5" fill="#281500" x="12" y="1" width="1" height="1"></rect>
                    <rect id="Rectangle-26-Copy-7" fill="#281500" x="12" y="2" width="1" height="1"></rect>
                    <rect id="Rectangle-26-Copy-8" fill="#281500" x="14" y="1" width="1" height="1"></rect>
                    <rect id="Rectangle-26-Copy-13" fill="#281500" x="13" y="0" width="1" height="1"></rect>
                    <rect id="Rectangle-26-Copy-9" fill="#281500" x="16" y="8" width="1" height="1"></rect>
                    <rect id="Rectangle-26-Copy-10" fill="#281500" x="9" y="3" width="1" height="1"></rect>
                    <rect id="Rectangle-26-Copy-10" fill="#281500" x="11" y="0" width="1" height="1"></rect>
                    <rect id="Rectangle-26-Copy-11" fill="#281500" x="17" y="10" width="1" height="1"></rect>
                    <rect id="Rectangle-26-Copy-11" fill="#281500" x="13" y="0" width="1" height="1"></rect>
                    <rect id="Rectangle-26-Copy-11" fill="#281500" x="16" y="4" width="1" height="1"></rect>
                    <rect id="Rectangle-26-Copy-11" fill="#281500" x="15" y="5" width="1" height="1"></rect>
                    <rect id="Rectangle-26-Copy-11" fill="#281500" x="12" y="5" width="1" height="1"></rect>
                    <rect id="Rectangle-26-Copy-11" fill="#281500" x="10" y="6" width="1" height="1"></rect>
                    <rect id="Rectangle-26-Copy-11" fill="#281500" x="17" y="4" width="1" height="1"></rect>
                    <rect id="Rectangle-26-Copy-11" fill="#281500" x="12" y="7" width="1" height="1"></rect>
                    <rect id="Rectangle-26-Copy-11" fill="#281500" x="7" y="6" width="1" height="1"></rect>
                    <rect id="Rectangle-26-Copy-11" fill="#281500" x="4" y="3" width="1" height="1"></rect>
                    <rect id="Rectangle-26-Copy-11" fill="#281500" x="7" y="1" width="1" height="1"></rect>
                    <rect id="Rectangle-26-Copy-11" fill="#3D2000" x="8" y="7" width="1" height="1"></rect>
                    <rect id="Rectangle-26-Copy-11" fill="#281500" x="8" y="0" width="1" height="1"></rect>
                    <rect id="Rectangle-26-Copy-11" fill="#281500" x="1" y="4" width="1" height="1"></rect>
                    <rect id="Rectangle-26-Copy-11" fill="#281500" x="3" y="6" width="1" height="1"></rect>
                    <rect id="Rectangle-26-Copy-11" fill="#281500" x="5" y="2" width="1" height="1"></rect>
                    <rect id="Rectangle-26-Copy-11" fill="#281500" x="3" y="3" width="1" height="1"></rect>
                    <rect id="Rectangle-26-Copy-11" fill="#281500" x="5" y="0" width="1" height="1"></rect>
                    <rect id="Rectangle-26-Copy-12" fill="#281500" x="15" y="3" width="1" height="1"></rect>
                    <rect id="Rectangle-26-Copy-12" fill="#281500" x="14" y="4" width="1" height="1"></rect>
                    <rect id="Rectangle-26-Copy-6" fill="#281500" x="10" y="1" width="1" height="1"></rect>
                </g>
                <g id="mouth" transform="translate(6.000000, 22.000000)">
                    <rect id="Rectangle-12" fill="#FFFFFF" x="0" y="0" width="8" height="2"></rect>
                    <rect id="Rectangle-13" fill="#D08669" x="0" y="1" width="1" height="1"></rect>
                    <rect id="Rectangle-13-Copy" fill="#D08669" x="7" y="1" width="1" height="1"></rect>
                    <rect id="Rectangle-14" fill="#F4D39F" x="0" y="2" width="8" height="2"></rect>
                    <rect id="Rectangle-5" fill="#3D2000" x="3" y="3" width="2" height="1"></rect>
                    <rect id="Rectangle-5" fill="#3D2000" x="7" y="3" width="1" height="1"></rect>
                    <rect id="Rectangle-5-Copy" fill="#3D2000" x="0" y="3" width="1" height="1"></rect>
                    <rect id="Rectangle-13-Copy-2" fill="#D08669" x="1" y="2" width="6" height="1"></rect>
                </g>
                <rect id="Rectangle-25-Copy-20" fill="#4D2900" x="6" y="25" width="1" height="1"></rect>
                <g id="brows" transform="translate(4.000000, 11.000000)" fill="#3D2000">
                    <rect id="Rectangle-15" x="0" y="0" width="4" height="1"></rect>
                    <rect id="Rectangle-16" x="8" y="0" width="4" height="1"></rect>
                </g>
                <g id="eyes" transform="translate(4.000000, 13.000000)">
                    <g id="eye">
                        <rect id="Rectangle-17" fill="#FFFFFF" x="0" y="0" width="4" height="2"></rect>
                        <rect id="Rectangle-19" fill="#C3A77B" x="1" y="2" width="2" height="1"></rect>
                        <rect id="Rectangle-18" fill="#291600" x="1" y="0" width="2" height="2"></rect>
                    </g>
                    <rect id="Rectangle-25-Copy-2" fill="#3D2000" x="1" y="0" width="1" height="1"></rect>
                    <g id="eye" transform="translate(8.000000, 0.000000)">
                        <rect id="Rectangle-17" fill="#FFFFFF" x="0" y="0" width="4" height="2"></rect>
                        <rect id="Rectangle-19" fill="#C3A77B" x="1" y="2" width="2" height="1"></rect>
                        <rect id="Rectangle-18" fill="#291600" x="1" y="0" width="2" height="2"></rect>
                    </g>
                    <rect id="Rectangle-25-Copy-2" fill="#3D2000" x="9" y="0" width="1" height="1"></rect>
                </g>
                <g id="nose" transform="translate(8.000000, 12.000000)">
                    <rect id="Rectangle-24" fill="#C3A77B" x="4" y="4" width="1" height="1"></rect>
                    <rect id="Rectangle-20" fill="#C3A77B" x="2" y="0" width="1" height="1"></rect>
                    <rect id="Rectangle-20-Copy" fill="#C3A77B" x="0" y="3" width="1" height="1"></rect>
                    <rect id="Rectangle-21" fill="#AC9167" x="3" y="1" width="1" height="4"></rect>
                    <rect id="Rectangle-22" fill="#AC9167" x="4" y="5" width="1" height="2"></rect>
                    <rect id="Rectangle-23" fill="#AC9167" x="0" y="4" width="1" height="1"></rect>
                </g>
                <rect id="Rectangle-27-Copy" fill="#C3A77B" transform="translate(10.500000, 19.500000) scale(-1, 1) translate(-10.500000, -19.500000) " x="9" y="19" width="3" height="1"></rect>
            </g>
        </g>
    </g>
</svg>