<?xml version="1.0" encoding="UTF-8"?>
<svg width="120px" height="120px" viewBox="0 0 120 120" version="1.1" xmlns="http://www.w3.org/2000/svg" xmlns:xlink="http://www.w3.org/1999/xlink">
    <!-- Generator: Sketch 43.2 (39069) - http://www.bohemiancoding.com/sketch -->
    <title>gear</title>
    <desc>Created with Sketch.</desc>
    <defs></defs>
    <g id="Page-1" stroke="none" stroke-width="1" fill="none" fill-rule="evenodd">
        <g id="gear" fill-rule="nonzero" fill="#000000">
            <g id="Gear_icon_svg" transform="translate(23.000000, 23.000000)">
                <path d="M75,44.3748214 L75,30.6249107 L66.5625,29.2186607 C65.9375893,26.8749107 65.0000893,24.6873214 63.9061607,22.8123214 L68.90625,15.9375 L59.2186607,6.09375 L52.1874107,10.9374107 C50.15625,9.84375 47.9686607,8.90625 45.7813393,8.28107143 L44.3750893,0 L30.6249107,0 L29.2186607,8.4375 C26.8749107,9.06241071 24.84375,9.99991071 22.8125893,11.0935714 L15.9375,6.24991071 L6.09375,15.9375 L11.0938393,22.8123214 C10.0001786,24.84375 9.06267857,27.0310714 8.4375,29.3748214 L5.68434189e-14,30.6249107 L5.68434189e-14,44.3748214 L8.4375,45.7810714 C9.06241071,48.1248214 9.99991071,50.15625 11.0938393,52.1874107 L6.09375,59.2186607 L15.7813393,68.90625 L22.8125893,63.9061607 C24.84375,64.9998214 27.0313393,65.9373214 29.3750893,66.5625 L30.7813393,74.8435714 L44.53125,74.8435714 L45.9375,66.4060714 C48.1250893,65.7811607 50.3124107,64.8436607 52.3438393,63.75 L59.3750893,68.7498214 L69.0624107,59.0625 L64.0625893,52.03125 C65.15625,49.9998214 66.09375,47.9686607 66.7186607,45.6249107 L75,44.3748214 Z M37.5,51.8748214 C29.53125,51.8748214 23.1249107,45.46875 23.1249107,37.5 C23.1249107,29.53125 29.6874107,23.1249107 37.5,23.1249107 C45.3125893,23.1249107 51.8750893,29.53125 51.8750893,37.5 C51.8750893,45.46875 45.46875,51.8748214 37.5,51.8748214 Z" id="Shape"></path>
            </g>
        </g>
    </g>
</svg>