<?xml version="1.0" encoding="UTF-8"?>
<svg width="120px" height="120px" viewBox="0 0 120 120" version="1.1" xmlns="http://www.w3.org/2000/svg" xmlns:xlink="http://www.w3.org/1999/xlink">
    <!-- Generator: Sketch 43.2 (39069) - http://www.bohemiancoding.com/sketch -->
    <title>github</title>
    <desc>Created with Sketch.</desc>
    <defs></defs>
    <g id="Page-1" stroke="none" stroke-width="1" fill="none" fill-rule="evenodd">
        <g id="github" fill-rule="nonzero" fill="#000000">
            <g id="Octicons-mark-github" transform="translate(20.000000, 21.000000)">
                <path d="M40,0 C17.9101562,0 0,17.8993994 0,39.975976 C0,57.6411411 11.46,72.6223724 27.3559375,77.9072432 C29.3554688,78.2732733 30.0854688,77.0386246 30.0854688,75.9845706 C30.0854688,75.032955 30.0488281,71.8806306 30.0292969,68.5427928 C18.90625,70.9582943 16.5551562,63.8288288 16.5551562,63.8288288 C14.7339063,59.2124625 12.1142188,57.9827327 12.1142188,57.9827327 C8.47898437,55.5037538 12.39,55.5525526 12.39,55.5525526 C16.4060938,55.8306667 18.5204687,59.6711712 18.5204687,59.6711712 C22.0898438,65.7807808 27.8857031,64.0142643 30.1610937,62.9894895 C30.5246875,60.4129129 31.5598437,58.6463964 32.7001562,57.6509009 C23.8207812,56.6408048 14.48,53.2102102 14.48,37.8922282 C14.48,33.5246967 16.0400781,29.9624625 18.59375,27.1638318 C18.1860156,26.1488168 16.8090625,22.0814174 18.9892187,16.5794114 C18.9892187,16.5794114 22.34375,15.5058378 29.9901563,20.6785105 C33.1785938,19.787952 36.5990625,19.3487628 39.9999219,19.3340841 C43.3983594,19.3487628 46.8211719,19.7927928 50.0146094,20.6833514 C57.6464844,15.5058378 61.0058594,16.5842523 61.0058594,16.5842523 C63.1933594,22.0911772 61.8164062,26.1536577 61.40625,27.1638318 C63.9696875,29.9624625 65.5175781,33.5247748 65.5175781,37.8922282 C65.5175781,53.2492492 56.1621094,56.630967 47.2510156,57.6216216 C48.6914844,58.8611111 49.9658594,61.2912913 49.9658594,65.0195195 C49.9658594,70.363027 49.9121094,74.6719219 49.9121094,75.9894895 C49.9121094,77.0533033 50.6396094,78.2976336 52.6660156,77.9072432 C68.5498437,72.6126126 80,57.6313814 80,39.975976 C80,17.8993994 62.0898438,0 40,0 Z" id="Shape"></path>
            </g>
        </g>
    </g>
</svg>