<?xml version="1.0" encoding="UTF-8"?>
<svg viewBox="0 0 120 120" version="1.1" xmlns="http://www.w3.org/2000/svg" xmlns:xlink="http://www.w3.org/1999/xlink">
    <!-- Generator: Sketch 48.2 (47327) - http://www.bohemiancoding.com/sketch -->
    <title>github</title>
    <desc>Created with Sketch.</desc>
    <defs></defs>
    <g id="Page-1" stroke="none" stroke-width="1" fill="inherit" fill-rule="evenodd">
        <g id="github" fill-rule="nonzero">
            <g id="Octicons-mark-github" transform="translate(0.000000, 1.000000)">
                <path d="M60,0 C26.8652344,0 0,26.8490991 0,59.963964 C0,86.4617117 17.19,108.933559 41.0339063,116.860865 C44.0332031,117.40991 45.1282031,115.557937 45.1282031,113.976856 C45.1282031,112.549432 45.0732422,107.820946 45.0439453,102.814189 C28.359375,106.437441 24.8327344,95.7432432 24.8327344,95.7432432 C22.1008594,88.8186937 18.1713281,86.9740991 18.1713281,86.9740991 C12.7184766,83.2556306 18.585,83.3288288 18.585,83.3288288 C24.6091406,83.746 27.7807031,89.5067568 27.7807031,89.5067568 C33.1347656,98.6711712 41.8285547,96.0213964 45.2416406,94.4842342 C45.7870312,90.6193694 47.3397656,87.9695946 49.0502344,86.4763514 C35.7311719,84.9612072 21.72,79.8153153 21.72,56.8383423 C21.72,50.287045 24.0601172,44.9436937 27.890625,40.7457477 C27.2790234,39.2232252 25.2135938,33.1221261 28.4838281,24.8691171 C28.4838281,24.8691171 33.515625,23.2587568 44.9852344,31.0177658 C49.7678906,29.6819279 54.8985938,29.0231441 59.9998828,29.0011261 C65.0975391,29.0231441 70.2317578,29.6891892 75.0219141,31.025027 C86.4697266,23.2587568 91.5087891,24.8763784 91.5087891,24.8763784 C94.7900391,33.1367658 92.7246094,39.2304865 92.109375,40.7457477 C95.9545313,44.9436937 98.2763672,50.2871622 98.2763672,56.8383423 C98.2763672,79.8738739 84.2431641,84.9464505 70.8765234,86.4324324 C73.0372266,88.2916667 74.9487891,91.9369369 74.9487891,97.5292793 C74.9487891,105.544541 74.8681641,112.007883 74.8681641,113.984234 C74.8681641,115.579955 75.9594141,117.44645 78.9990234,116.860865 C102.824766,108.918919 120,86.4470721 120,59.963964 C120,26.8490991 93.1347656,0 60,0 Z" id="Shape"></path>
            </g>
        </g>
    </g>
</svg>
