<svg id="Layer_1" data-name="Layer 1" xmlns="http://www.w3.org/2000/svg" xmlns:xlink="http://www.w3.org/1999/xlink" viewBox="0 0 194.85 41.96"><defs><clipPath id="clip-path" transform="translate(5 5)"><path d="M182.35,25.47a2.5,2.5,0,1,0-2.5-2.5A2.47,2.47,0,0,0,182.35,25.47Z" style="fill:none;clip-rule:evenodd"/></clipPath><clipPath id="clip-path-2" transform="translate(5 5)"><rect x="-2.25" y="-8.63" width="196" height="42" style="fill:none"/></clipPath><clipPath id="clip-path-3" transform="translate(5 5)"><path d="M175.83,20.25h1.37c-.6,3.09-3.41,5.36-7.47,5.36-5,0-8.16-3.48-8.16-9.37,0-5.68,3.18-9.4,8-9.4s7.84,3.53,7.84,8.84v.77H163v.07c0,5,2.71,7.87,6.79,7.87C173.09,24.4,175.29,22.62,175.83,20.25Zm-6.26-12.2c-3.78,0-6.4,2.9-6.59,7.26h13C176,11,173.43,8.05,169.58,8.05ZM153.32,25.37h1.37V14c0-3.43,1.78-5.87,4.66-5.87a4.38,4.38,0,0,1,1.9.37V7.14a5,5,0,0,0-6.61,3.55h0V7.08h-1.28Zm-12,.26c-3.59,0-6.06-2.13-6.06-5.2s2.25-4.89,6.54-5.22l6.24-.46V13.13c0-3.18-1.92-5.06-5.19-5.06-3.09,0-5.15,1.58-5.59,4.32h-1.3c.32-3.37,3-5.55,6.89-5.55,4,0,6.56,2.39,6.56,6.19V25.37h-1.32V21.45h0A7.06,7.06,0,0,1,141.31,25.63Zm.19-1.2c3.62,0,6.52-2.62,6.52-5.85V15.87l-6.06.46c-3.48.25-5.34,1.67-5.34,4.1S138.66,24.43,141.5,24.43ZM134,7.08h-1.44l-4.68,16.77h-.05L122.75,7.08H121.2l-5.1,16.77h0L111.38,7.08H110l5.31,18.28h1.62l5.06-16.52H122l5.1,16.52h1.58ZM95.7,11.78c0,2.36,1.56,3.73,4.66,4.46l3,.72c3,.7,4.13,1.76,4.13,3.66,0,2.29-2.36,3.81-5.4,3.81s-5.31-1.83-5.57-4.24H95.12c.21,3,3,5.41,6.91,5.41s6.79-2.07,6.79-5.1c0-2.51-1.48-3.87-5.1-4.76l-2.85-.67c-2.6-.63-3.81-1.56-3.81-3.37C97,9.53,99.28,8,102,8c3.06,0,4.94,1.79,5.2,4.32h1.34C108.23,9,105.7,6.86,102,6.86,98.49,6.86,95.7,8.86,95.7,11.78ZM84.45,32c-4,0-6.71-2.07-7.22-4.66h1.41c.62,2,2.74,3.46,5.89,3.46,3.8,0,6.21-2.21,6.21-5.55V20.51h-.05a7,7,0,0,1-6.77,5c-4.59,0-7.72-3.78-7.72-9.35s3.15-9.37,7.73-9.37A7.08,7.08,0,0,1,90.76,12h0V7.08h1.28V25.15C92.07,29.25,89.12,32,84.45,32Zm-.37-7.65c3.92,0,6.64-3.3,6.64-8.1S88,8.07,84.08,8.07s-6.52,3.3-6.52,8.16S80.19,24.31,84.08,24.31ZM58.83,25.37h1.37V14.48c0-3.78,2.39-6.42,6-6.42a5.25,5.25,0,0,1,5.63,5.66V25.37h1.37V13.57c0-4.13-2.65-6.73-6.68-6.73a6.35,6.35,0,0,0-6.33,4.25h0v-4H58.83ZM53.95,2.58A1.08,1.08,0,0,0,55,1.51a1.08,1.08,0,0,0-2.16,0A1.08,1.08,0,0,0,53.95,2.58Zm-.69,22.78h1.35V7.08H53.26Zm-5.75,0h1.35V0H47.51Zm-5.75,0h1.35V0H41.77Zm-11.44-1c4.1,0,6.79-3.13,6.79-8.16s-2.69-8.16-6.79-8.16-6.77,3.13-6.77,8.16S26.23,24.38,30.32,24.38Zm0,1.23c-4.89,0-8.14-3.64-8.14-9.39s3.27-9.39,8.14-9.39,8.16,3.62,8.16,9.39S35.21,25.61,30.32,25.61Zm-11.5-.25V0H17.44V11.71h-16V0H0V25.37H1.39V13h16V25.37Z" style="fill:none;clip-rule:evenodd"/></clipPath></defs><title>logo</title><g style="clip-path:url(#clip-path)"><g style="clip-path:url(#clip-path-2)"><rect x="179.85" y="20.47" width="15" height="15" style="fill:#df0000"/></g></g><g style="clip-path:url(#clip-path-3)"><g style="clip-path:url(#clip-path-2)"><rect width="187.43" height="41.96"/></g></g></svg>
