<?xml version="1.0" encoding="UTF-8"?>
<svg viewBox="0 0 120 120" version="1.1" xmlns="http://www.w3.org/2000/svg" xmlns:xlink="http://www.w3.org/1999/xlink">
    <!-- Generator: Sketch 48.2 (47327) - http://www.bohemiancoding.com/sketch -->
    <title>podcast</title>
    <desc>Created with Sketch.</desc>
    <defs></defs>
    <g id="Page-1" stroke="none" stroke-width="1" fill="inherit" fill-rule="evenodd">
        <g id="podcast">
            <g id="Group">
                <g id="Oval-3-+-Combined-Shape-Mask">
                    <path d="M49.8019783,86.2835123 C49.7029369,85.3121654 49.6064592,84.3181354 49.5077022,83.3055556 C49.4591558,82.8077984 49.4124336,82.3145236 49.3683199,81.8262224 C39.7426257,77.6986777 33,68.1367512 33,57 C33,42.0883118 45.0883118,30 60,30 C74.9116882,30 87,42.0883118 87,57 C87,68.1377326 80.2561858,77.700363 70.6291353,81.8273134 C70.584346,82.3155134 70.5368681,82.8084352 70.4875,83.3055556 C70.3869324,84.318237 70.2888502,85.3134955 70.1882654,86.2869078 C82.3043045,82.0724949 91,70.5517417 91,57 C91,39.8791728 77.1208272,26 60,26 C42.8791728,26 29,39.8791728 29,57 C29,70.548104 37.6910277,82.0663096 49.8019783,86.2835123 Z M49.0238595,73.7216717 C49.0839717,72.064899 49.2622322,70.5362428 49.6098367,69.1677516 C46.1764329,66.2331421 44,61.8707376 44,57 C44,48.163444 51.163444,41 60,41 C68.836556,41 76,48.163444 76,57 C76,61.8747413 73.8199876,66.2403135 70.381694,69.1749854 C70.7321564,70.5434716 70.9128806,72.0704542 70.9748047,73.7225503 C76.4111385,70.1475165 80,63.99287 80,57 C80,45.954305 71.045695,37 60,37 C48.954305,37 40,45.954305 40,57 C40,63.9922972 43.5882736,70.1465082 49.0238595,73.7216717 Z M60,120 C26.862915,120 0,93.137085 0,60 C0,26.862915 26.862915,0 60,0 C93.137085,0 120,26.862915 120,60 C120,93.137085 93.137085,120 60,120 Z M59.9983644,97.5 C65.7784017,97.5 66.3485747,90.9500461 67.1505682,82.75 C67.9525616,74.5499539 68.0229234,68 59.9983644,68 C51.9738054,68 52.0519734,74.4817335 52.8461606,82.75 C53.6403477,91.0182665 54.218327,97.5 59.9983644,97.5 Z M60,65 C64.418278,65 68,61.418278 68,57 C68,52.581722 64.418278,49 60,49 C55.581722,49 52,52.581722 52,57 C52,61.418278 55.581722,65 60,65 Z" id="Combined-Shape"></path>
                </g>
            </g>
        </g>
    </g>
</svg>
