<?xml version="1.0" encoding="utf-8"?>
<!-- Generator: Adobe Illustrator 21.1.0, SVG Export Plug-In . SVG Version: 6.00 Build 0)  -->
<svg version="1.1" id="Layer_1" xmlns="http://www.w3.org/2000/svg" xmlns:xlink="http://www.w3.org/1999/xlink" x="0px" y="0px"
	 viewBox="0 0 600 600" style="enable-background:new 0 0 600 600;" xml:space="preserve">
<style type="text/css">
	.st0{fill:#231F20;}
</style>
<title>Running Icon on Transparent Background</title>
<g>
	<title>Layer 1</title>
	<path id="path8248" class="st0" d="M397.5,181.3c17.8,0,32.2-14.5,32.2-32.3s-14.4-32.2-32.2-32.2s-32.3,14.4-32.3,32.2
		S379.7,181.3,397.5,181.3"/>
	<path id="path8256" class="st0" d="M286.5,205.2l-50.1,57.9c-3,3.7-7.5,5.9-12.5,5.9c-9,0-16.2-7.3-16.2-16.2
		c0-4.9,2.1-9.2,5.5-12.2l54.1-62.3c3-3.6,7.5-5.8,12.5-5.8h78.3c5.8,0,10.9,2.3,14.7,6l49.9,49.9l41.2-41.3
		c2.9-2.5,6.7-3.9,10.8-3.9c9.3,0,16.7,7.5,16.7,16.8c0,4-1.4,7.7-3.8,10.6l-49.8,50.2c-15.2,15.1-27.3,2.3-27.3,2.3l-30.6-30.8
		l-47.8,55.3l43.8,43.8c0,0,9.3,8.6,3.9,25.6l-24.6,109.5c-1.9,9.5-10.3,16.7-20.4,16.7c-11.5,0-20.9-9.4-20.9-20.9
		c0-1.9,0.2-3.6,0.6-5.3l20.2-89.8l-49.8-48.4l-42.8,47.8c0,0-6.9,8.5-25.3,7.9l-86.9,0.1c-9.7,0.1-18.5-6.5-20.7-16.3
		c-2.6-11.2,4.3-22.2,15.6-24.7c1.8-0.4,3.5-0.5,5.2-0.5l74.7,0.2l110.5-128L286.5,205.2z"/>
</g>
</svg>
