<?xml version="1.0" encoding="UTF-8"?>
<svg width="120px" height="120px" viewBox="0 0 120 120" version="1.1" xmlns="http://www.w3.org/2000/svg" xmlns:xlink="http://www.w3.org/1999/xlink">
    <!-- Generator: Sketch 48.2 (47327) - http://www.bohemiancoding.com/sketch -->
    <title>Artboard</title>
    <desc>Created with Sketch.</desc>
    <defs></defs>
    <g id="Page-1" stroke="none" stroke-width="1" fill="none" fill-rule="evenodd">
        <g id="Artboard" fill="#000000">
            <g id="runner" transform="translate(0.000000, 2.000000)">
                <path d="M60,118 C26.862915,118 0,91.137085 0,58 C0,24.862915 26.862915,-2 60,-2 C93.137085,-2 120,24.862915 120,58 C120,91.137085 93.137085,118 60,118 Z M78.570543,35.3890891 C81.8821709,35.3890891 84.5612407,32.6914147 84.5612407,29.3797868 C84.5612407,26.0681589 81.8821709,23.3890891 78.570543,23.3890891 C75.2589151,23.3890891 72.5612407,26.0681589 72.5612407,29.3797868 C72.5612407,32.6914147 75.2589151,35.3890891 78.570543,35.3890891 Z M57.4814327,39.598616 L62.955276,39.6176054 L41.8800257,63.9240103 L27.6327751,63.8860315 C27.3085405,63.8860315 26.9843058,63.9050209 26.6409986,63.9809784 C24.485792,64.4557129 23.1697809,66.5445446 23.6656691,68.671355 C24.0852669,70.5323141 25.7636579,71.7856131 27.6137024,71.7666237 L44.1878133,71.7476344 C47.6971762,71.8615706 49.0131873,70.2474734 49.0131873,70.2474734 L57.1762707,61.1705504 L66.6744378,70.3614097 L62.8217676,87.4138719 C62.7454771,87.7366913 62.7073319,88.0595108 62.7073319,88.420309 C62.7073319,90.6040875 64.5001586,92.3890891 66.6935104,92.3890891 C68.6198455,92.3890891 70.221946,91.0218539 70.5843258,89.2178629 L75.2761915,68.4244931 C76.3061132,65.1962987 74.5323592,63.5632121 74.5323592,63.5632121 L66.1785495,55.2458642 L75.2952641,44.7447377 L81.1314873,50.5934664 C81.1314873,50.5934664 83.4392749,53.0241069 86.3383138,50.1567106 L95.8364809,40.6240425 C96.2942239,40.0733505 96.5612407,39.3707435 96.5612407,38.6111683 C96.5612407,36.8451561 95.1498664,35.4209527 93.3761123,35.4209527 C92.5941347,35.4209527 91.869375,35.686804 91.3162689,36.1615385 L83.4583475,44.0041519 L73.9411078,34.5284519 C73.216348,33.8258449 72.2436442,33.3890891 71.137432,33.3890891 L56.2035668,33.3890891 C55.2499356,33.3890891 54.3916675,33.8068555 53.8194888,34.4904731 L43.5011988,46.3208561 C42.8527296,46.8905375 42.4522044,47.7070808 42.4522044,48.6375603 C42.4522044,50.3276151 43.8254334,51.7138397 45.5419696,51.7138397 C46.4956009,51.7138397 47.353869,51.2960734 47.9260477,50.5934664 L57.4814327,39.598616 Z" id="Combined-Shape"></path>
            </g>
        </g>
    </g>
</svg>