<?xml version="1.0" encoding="UTF-8"?>
<svg viewBox="0 0 120 120" version="1.1" xmlns="http://www.w3.org/2000/svg" xmlns:xlink="http://www.w3.org/1999/xlink">
    <!-- Generator: Sketch 48.2 (47327) - http://www.bohemiancoding.com/sketch -->
    <title>sync</title>
    <desc>Created with Sketch.</desc>
    <defs></defs>
    <g id="Page-1" stroke="none" stroke-width="1" fill-rule="evenodd">
        <g id="sync" fill="inherit">
            <path d="M63,99.8891941 C83.6901978,98.3550921 100,81.0822253 100,60 C100,49.2326156 95.7456205,39.4588947 88.8261404,32.2681165 L80.3602565,39.3490868 C85.6938625,44.6080887 89,51.9179494 89,60 C89,75.0032882 77.6066696,87.3455215 63,88.8467088 L63,81 L46,94.5 L63,108 L63,99.8891941 Z M29.1131632,85.4183779 L37.5513765,78.3605515 C33.4568265,73.3602589 31,66.9670408 31,60 C31,45.3408667 41.8766305,33.2221066 56,31.273611 L56,20.197501 C35.7867092,22.2043987 20,39.2586076 20,60 C20,69.6531819 23.4194541,78.5077075 29.1131632,85.4183779 Z M60,120 C26.862915,120 0,93.137085 0,60 C0,26.862915 26.862915,0 60,0 C93.137085,0 120,26.862915 120,60 C120,93.137085 93.137085,120 60,120 Z M73,25.5 L56,12 L56,39 L73,25.5 Z" id="Combined-Shape"></path>
        </g>
    </g>
</svg>
