<?xml version="1.0" encoding="UTF-8"?>
<svg width="80px" height="80px" viewBox="0 0 80 80" version="1.1" xmlns="http://www.w3.org/2000/svg" xmlns:xlink="http://www.w3.org/1999/xlink">
    <!-- Generator: Sketch 43.2 (39069) - http://www.bohemiancoding.com/sketch -->
    <title>twitter</title>
    <desc>Created with Sketch.</desc>
    <defs></defs>
    <g id="Page-1" stroke="none" stroke-width="1" fill="none" fill-rule="evenodd">
        <g id="twitter" fill-rule="nonzero" fill="#000000">
            <g id="Twitter_bird_logo_2012" transform="translate(5.000000, 12.000000)">
                <path d="M22.1013333,56.7990984 C48.3513333,56.7990984 62.7013333,35.0269672 62.7013333,16.1515574 C62.7013333,15.5441803 62.678,14.9134426 62.6546667,14.3060656 C65.4313333,12.2970492 67.858,9.77409836 69.7713333,6.9007377 C67.2046667,8.04540984 64.4746667,8.79295082 61.5813333,9.14336066 C64.5213333,7.36795082 66.7846667,4.58803279 67.858,1.24745902 C65.1046667,2.88270492 62.048,4.07409836 58.8046667,4.70483607 C56.1913333,1.92491803 52.5046667,0.196229508 48.398,0.196229508 C40.5113333,0.196229508 34.1413333,6.59704918 34.1413333,14.4695902 C34.1413333,15.5909016 34.258,16.6888525 34.5146667,17.7167213 C22.6613333,17.1093443 12.138,11.4327049 5.11466667,2.7892623 C3.878,4.89172131 3.178,7.34459016 3.178,9.96098361 C3.178,14.9134426 5.698,19.2818852 9.52466667,21.8515574 C7.19133333,21.7814754 4.97466667,21.127377 3.06133333,20.0761475 L3.06133333,20.2630328 C3.06133333,27.1777869 7.98466667,32.9478689 14.518,34.2560656 C13.328,34.5831148 12.068,34.77 10.7613333,34.77 C9.85133333,34.77 8.94133333,34.6765574 8.078,34.5130328 C9.898,40.1896721 15.1713333,44.3245082 21.4013333,44.4413115 C16.5246667,48.272459 10.3646667,50.5618033 3.69133333,50.5618033 C2.548,50.5618033 1.40466667,50.4917213 0.284666667,50.374918 C6.538,54.4396721 14.0513333,56.7990984 22.1013333,56.7990984" id="Shape"></path>
            </g>
        </g>
    </g>
</svg>