<?xml version="1.0" encoding="UTF-8"?>
<svg viewBox="0 0 120 120" version="1.1" xmlns="http://www.w3.org/2000/svg" xmlns:xlink="http://www.w3.org/1999/xlink">
    <!-- Generator: Sketch 48.2 (47327) - http://www.bohemiancoding.com/sketch -->
    <title>watch</title>
    <desc>Created with Sketch.</desc>
    <defs></defs>
    <g id="Page-1" stroke="none" stroke-width="1" fill-rule="evenodd">
        <g id="watch" fill="inherit">
            <g id="Group-2" transform="translate(1.000000, 0.000000)">
                <path d="M74.6832968,85.2475012 C78.2639363,84.5642304 80.9704863,81.4147154 80.9704863,77.6364549 L80.9704863,55.3370288 L81.5715326,55.3370288 C82.4206024,55.3370288 83.097166,54.6524097 83.097166,53.8078892 L83.097166,48.5291396 C83.097166,47.6822541 82.4141167,47 81.5715326,47 L80.9704863,47 L80.9704863,41.7484798 C80.9704863,37.9203782 78.1934704,34.7406562 74.546446,34.1126119 C73.9057802,33.3631617 73.3133599,32.5708359 73.1733213,32.0648871 C72.8394553,30.858654 72.794397,22.6222544 71.3156149,21.5782267 C68.7162452,19.7430584 61.5169782,19.9836576 60.2061823,20.0439398 C58.8953864,19.9836576 51.6961194,19.7430584 49.0967497,21.5782267 C47.6179675,22.6222544 47.5729092,30.858654 47.2390432,32.0648871 C47.1033263,32.5552222 46.542718,33.3145317 45.9250821,34.0431144 C42.0329377,34.4538643 39,37.7488886 39,41.7484798 L39,77.6364549 C39,81.5944691 41.9686989,84.8593494 45.798274,85.3273731 C46.4644255,86.0996007 47.0940878,86.9301541 47.2390432,87.4538673 C47.5729092,88.6601005 47.6179675,96.8965001 49.0967497,97.9405278 C51.6961194,99.7756961 58.8953864,99.5350968 60.2061823,99.4748147 C61.5169782,99.5350968 68.7162452,99.7756961 71.3156149,97.9405278 C72.794397,96.8965001 72.8394553,88.6601005 73.1733213,87.4538673 C73.3232884,86.9120474 73.9920579,86.0418034 74.6832968,85.2475012 Z M75.3924209,83.3879446 L60.4123645,83.0103931 L60.4123645,83 L60.2061823,83.0051965 L60,83 L60,83.0103931 L44.3137405,83.4057435 C42.3104999,82.0066654 41,79.6849697 41,77.0638571 L41,43.7318201 C41,40.037265 43.5901399,36.9479414 47.0590359,36.1822023 L60,36.5083614 L60,36.5187545 L60.2061823,36.5135579 L60.4123645,36.5187545 L60.4123645,36.5083614 L72.6875989,36.1989811 C76.1182542,36.9930782 78.6755867,40.0703054 78.6755867,43.7318201 L78.6755867,77.0638571 C78.6755867,79.6776273 77.3792025,81.9884747 75.3924209,83.3879446 Z M60,120 C26.862915,120 0,93.137085 0,60 C0,26.862915 26.862915,0 60,0 C93.137085,0 120,26.862915 120,60 C120,93.137085 93.137085,120 60,120 Z M81,61 L81,73.4168514 L82.4251012,73.4168514 L82.4251012,61 L81,61 Z" id="Combined-Shape"></path>
            </g>
        </g>
    </g>
</svg>
