<?xml version="1.0" encoding="UTF-8"?>
<svg width="120px" height="120px" viewBox="0 0 120 120" version="1.1" xmlns="http://www.w3.org/2000/svg" xmlns:xlink="http://www.w3.org/1999/xlink">
    <!-- Generator: Sketch 43.2 (39069) - http://www.bohemiancoding.com/sketch -->
    <title>watch</title>
    <desc>Created with Sketch.</desc>
    <defs></defs>
    <g id="Page-1" stroke="none" stroke-width="1" fill="none" fill-rule="evenodd">
        <g id="watch">
            <g id="Group-2" transform="translate(38.000000, 20.000000)">
                <rect id="Rectangle-3" fill="#000000" x="39.902834" y="26.7849224" width="4.09716599" height="8.33702882" rx="2.048583"></rect>
                <rect id="Rectangle" stroke="#000000" stroke-width="2.21169627" x="1.10584813" y="16.5382206" width="39.6506519" height="46.9235587" rx="7.74093694"></rect>
                <path d="M6.41891562,14.3216315 C7.12554382,13.5139725 7.81970613,12.618186 7.9728504,12.0648871 C8.30671641,10.858654 8.35177475,2.62225439 9.83055689,1.57822666 C12.695142,-0.444185037 21.1461717,0.0543638914 21.1461717,0.0543638914 L21.1461717,0.0688407827 C22.0667094,0.0222191662 29.6807805,-0.301223755 32.3703127,1.59759976 C33.8490949,2.64162749 33.8941532,10.8780271 34.2280192,12.0842602 C34.3823794,12.641952 35.0863825,13.5475913 35.7987868,14.3602248 C35.2969152,14.2579957 34.7774421,14.2043228 34.2454944,14.2043228 L7.76889884,14.2043228 C7.308416,14.2043228 6.85731688,14.2445334 6.41891562,14.3216315 Z" id="Combined-Shape" fill="#000000"></path>
                <path d="M6.24077796,79.9535606 C6.94740617,79.1459016 7.64156847,78.2501151 7.79471275,77.6968162 C8.12857876,76.4905831 8.1736371,68.2541834 9.65241924,67.2101557 C12.5170043,65.187744 20.9680341,65.6862929 20.9680341,65.6862929 L20.9680341,65.7007698 C21.8885717,65.6541482 29.5026428,65.3307053 32.1921751,67.2295288 C33.6709572,68.2735565 33.7160156,76.5099561 34.0498816,77.7161893 C34.2042417,78.2738811 34.9082448,79.1795204 35.6206492,79.9921539 C35.1187775,79.8899248 34.5993045,79.8362518 34.0673568,79.8362518 L7.59076119,79.8362518 C7.13027835,79.8362518 6.67917923,79.8764625 6.24077796,79.9535606 Z" id="Combined-Shape" fill="#000000" transform="translate(20.931174, 72.815965) scale(1, -1) translate(-20.931174, -72.815965) "></path>
                <rect id="Rectangle-2" fill="#000000" x="41.3279352" y="41.5077605" width="1.42510121" height="12.4168514"></rect>
            </g>
        </g>
    </g>
</svg>